<svg width="383" height="188" viewBox="0 0 383 188" fill="none" xmlns="http://www.w3.org/2000/svg">
<path d="M278.5 87.5L192.5 0L104.5 87.5H278.5Z" fill="url(#paint0_linear_1569_4189)"/>
<g clip-path="url(#clip0_1569_4189)">
<path d="M221.498 71.7566V90.2612C221.498 90.9706 221.498 91.6491 221.437 92.3276C221.313 92.1425 221.159 91.9575 221.005 91.8033C220.974 91.7724 220.943 91.7107 220.912 91.6799C218.414 88.9042 214.744 87.1771 210.704 87.1771C206.818 87.1771 203.271 88.7809 200.742 91.3715C198.306 93.8696 196.826 97.293 196.826 101.056C196.826 103.646 197.566 106.113 198.83 108.211C199.509 109.352 200.372 110.4 201.359 111.264C201.421 111.295 201.452 111.326 201.483 111.356C201.637 111.511 201.791 111.634 201.976 111.788C201.328 111.85 200.619 111.85 199.91 111.85H181.405C165.985 111.85 159.816 105.682 159.816 90.2612V71.7566C159.816 56.3362 165.985 50.168 181.405 50.168H199.91C215.33 50.168 221.498 56.3362 221.498 71.7566Z" stroke="white" stroke-width="6.5" stroke-linecap="round" stroke-linejoin="round"/>
<path d="M161.42 65.9277H219.894" stroke="white" stroke-width="6.5" stroke-linecap="round" stroke-linejoin="round"/>
<path d="M179.926 50.5068V65.4955" stroke="white" stroke-width="6.5" stroke-linecap="round" stroke-linejoin="round"/>
<path d="M201.391 50.5068V64.1078" stroke="white" stroke-width="6.5" stroke-linecap="round" stroke-linejoin="round"/>
<path d="M224.583 101.056C224.583 102.166 224.46 103.246 224.182 104.294C223.843 105.682 223.288 107.008 222.578 108.211C220.173 112.221 215.763 114.935 210.705 114.935C207.374 114.935 204.351 113.763 202.007 111.789C201.977 111.789 201.977 111.789 201.977 111.789C201.792 111.635 201.637 111.511 201.483 111.357C201.452 111.326 201.421 111.295 201.36 111.265C200.373 110.401 199.509 109.352 198.831 108.211C197.566 106.114 196.826 103.647 196.826 101.056C196.826 97.2936 198.307 93.8702 200.743 91.3721C203.272 88.7815 206.819 87.1777 210.705 87.1777C214.745 87.1777 218.415 88.9048 220.913 91.6805C220.944 91.7114 220.975 91.773 221.005 91.8039C221.16 91.9581 221.314 92.1431 221.437 92.3282C223.411 94.7029 224.583 97.7562 224.583 101.056Z" stroke="white" stroke-width="6.5" stroke-miterlimit="10" stroke-linecap="round" stroke-linejoin="round"/>
<path d="M215.886 100.994H205.523" stroke="white" stroke-width="6.5" stroke-miterlimit="10" stroke-linecap="round" stroke-linejoin="round"/>
<path d="M210.705 95.9365V106.299" stroke="white" stroke-width="6.5" stroke-miterlimit="10" stroke-linecap="round" stroke-linejoin="round"/>
</g>
<path d="M124.905 182V164.504H131.985C135.705 164.504 138.081 166.52 138.081 170.072C138.081 173.432 135.777 175.664 131.961 175.64H127.521V182H124.905ZM131.577 166.76H127.521V173.552H131.577C133.857 173.576 135.417 172.472 135.417 170.144C135.417 167.816 133.833 166.76 131.577 166.76ZM140.458 182V169.304H142.666L142.786 171.56H142.906C143.458 169.928 144.898 169.136 146.578 169.136C146.866 169.136 147.106 169.16 147.322 169.184V171.512C147.13 171.488 146.842 171.488 146.554 171.488C144.298 171.488 143.026 172.664 142.906 174.752V182H140.458ZM154.459 182.216C150.739 182.216 148.243 179.672 148.243 175.688C148.243 171.776 150.619 169.112 154.459 169.112C158.155 169.112 160.651 171.632 160.651 175.664C160.651 179.552 158.275 182.216 154.459 182.216ZM154.459 180.152C156.667 180.152 158.131 178.544 158.131 175.664C158.131 172.808 156.739 171.152 154.459 171.152C152.251 171.152 150.763 172.76 150.763 175.688C150.763 178.52 152.203 180.152 154.459 180.152ZM167.794 182.216C164.698 182.216 162.61 179.888 162.61 175.64C162.61 171.392 164.698 169.088 167.794 169.088C169.93 169.088 171.514 170.168 172.114 171.8H172.258V164.504H174.73V182H172.354L172.258 179.48H172.114C171.514 181.112 169.93 182.216 167.794 182.216ZM168.658 180.176C171.01 180.176 172.234 178.328 172.234 176.36V174.92C172.234 172.976 171.01 171.104 168.658 171.104C166.546 171.104 165.154 172.64 165.154 175.64C165.154 178.616 166.546 180.176 168.658 180.176ZM182.633 182.216C179.753 182.216 178.073 180.488 178.073 177.128V169.304H180.545V176.504C180.545 178.856 181.409 180.152 183.545 180.152C185.633 180.152 187.025 178.496 187.025 176.168V169.304H189.497V182H187.145L187.025 179.432H186.881C186.257 181.184 184.601 182.216 182.633 182.216ZM198.052 182.216C194.332 182.216 191.884 179.6 191.884 175.664C191.884 171.728 194.332 169.112 198.148 169.112C201.22 169.112 203.476 170.96 203.668 173.696H201.268C200.98 172.04 199.708 171.176 198.076 171.176C195.724 171.176 194.404 172.976 194.404 175.688C194.404 178.544 195.844 180.152 198.052 180.152C199.9 180.152 201.124 179.072 201.316 177.464H203.716C203.524 180.344 201.22 182.216 198.052 182.216ZM209.848 182C207.76 182 207.112 181.064 207.112 179.36V171.32H204.712V169.304H207.112V165.632L209.584 165.344V169.304H212.392V171.32H209.584V178.904C209.584 179.744 209.872 179.96 210.664 179.96H212.392V182H209.848ZM214.849 167.36V164.504H217.321V167.36H214.849ZM214.849 182V169.304H217.321V182H214.849ZM226.107 182.216C222.387 182.216 219.891 179.672 219.891 175.688C219.891 171.776 222.267 169.112 226.107 169.112C229.803 169.112 232.299 171.632 232.299 175.664C232.299 179.552 229.923 182.216 226.107 182.216ZM226.107 180.152C228.315 180.152 229.779 178.544 229.779 175.664C229.779 172.808 228.387 171.152 226.107 171.152C223.899 171.152 222.411 172.76 222.411 175.688C222.411 178.52 223.851 180.152 226.107 180.152ZM234.888 182V169.304H237.24L237.336 171.824H237.48C238.224 170.024 239.904 169.112 241.776 169.112C244.368 169.112 246.312 170.576 246.312 174.464V182H243.84V174.968C243.84 172.376 242.904 171.152 240.888 171.152C238.704 171.152 237.336 172.88 237.336 175.064V182H234.888ZM254.094 182.24C250.758 182.24 248.766 180.536 248.766 178.016H251.214C251.214 179.672 252.414 180.44 254.142 180.44C255.894 180.44 256.83 179.744 256.83 178.568C256.83 177.248 255.99 176.888 253.878 176.576C250.686 176.12 249.102 175.28 249.102 172.904C249.102 170.6 251.118 169.064 254.118 169.064C257.166 169.064 259.038 170.624 259.086 173.048H256.662C256.638 171.512 255.63 170.888 254.07 170.888C252.51 170.888 251.574 171.584 251.574 172.664C251.574 173.912 252.534 174.296 254.766 174.608C257.718 175.016 259.326 175.856 259.326 178.352C259.326 180.848 257.238 182.24 254.094 182.24Z" fill="white"/>
<defs>
<linearGradient id="paint0_linear_1569_4189" x1="316.5" y1="-124.5" x2="317.217" y2="86.4675" gradientUnits="userSpaceOnUse">
<stop stop-color="white"/>
<stop offset="1" stop-color="#7D7D7D" stop-opacity="0"/>
</linearGradient>
<clipPath id="clip0_1569_4189">
<rect width="74.0183" height="74.0183" fill="white" transform="translate(153.648 44)"/>
</clipPath>
</defs>
</svg>
