<svg width="280" height="188" viewBox="0 0 280 188" fill="none" xmlns="http://www.w3.org/2000/svg">
<path d="M227 87.5L141 0L53 87.5H227Z" fill="url(#paint0_linear_2157_8806)"/>
<g clip-path="url(#clip0_2157_8806)">
<path d="M169.998 71.7566V90.2612C169.998 90.9706 169.998 91.6491 169.937 92.3276C169.813 92.1425 169.659 91.9575 169.505 91.8033C169.474 91.7724 169.443 91.7107 169.412 91.6799C166.914 88.9042 163.244 87.1771 159.204 87.1771C155.318 87.1771 151.771 88.7809 149.242 91.3715C146.806 93.8696 145.326 97.293 145.326 101.056C145.326 103.646 146.066 106.113 147.33 108.211C148.009 109.352 148.872 110.4 149.859 111.264C149.921 111.295 149.952 111.326 149.983 111.356C150.137 111.511 150.291 111.634 150.476 111.788C149.828 111.85 149.119 111.85 148.41 111.85H129.905C114.485 111.85 108.316 105.682 108.316 90.2612V71.7566C108.316 56.3362 114.485 50.168 129.905 50.168H148.41C163.83 50.168 169.998 56.3362 169.998 71.7566Z" stroke="#F3742D" stroke-width="6.5" stroke-linecap="round" stroke-linejoin="round"/>
<path d="M109.92 65.9277H168.394" stroke="#F3742D" stroke-width="6.5" stroke-linecap="round" stroke-linejoin="round"/>
<path d="M128.426 50.5068V65.4955" stroke="#F3742D" stroke-width="6.5" stroke-linecap="round" stroke-linejoin="round"/>
<path d="M149.891 50.5068V64.1078" stroke="#F3742D" stroke-width="6.5" stroke-linecap="round" stroke-linejoin="round"/>
<path d="M173.083 101.056C173.083 102.166 172.96 103.245 172.682 104.294C172.343 105.682 171.788 107.008 171.078 108.211C168.673 112.22 164.263 114.934 159.205 114.934C155.874 114.934 152.851 113.762 150.507 111.788C150.477 111.788 150.477 111.788 150.477 111.788C150.292 111.634 150.137 111.511 149.983 111.357C149.952 111.326 149.921 111.295 149.86 111.264C148.873 110.4 148.009 109.352 147.331 108.211C146.066 106.114 145.326 103.646 145.326 101.056C145.326 97.2931 146.807 93.8697 149.243 91.3716C151.772 88.781 155.319 87.1772 159.205 87.1772C163.245 87.1772 166.915 88.9043 169.413 91.68C169.444 91.7109 169.475 91.7725 169.505 91.8034C169.66 91.9576 169.814 92.1426 169.937 92.3277C171.911 94.7024 173.083 97.7557 173.083 101.056Z" stroke="#F3742D" stroke-width="6.5" stroke-miterlimit="10" stroke-linecap="round" stroke-linejoin="round"/>
<path d="M164.386 100.994H154.023" stroke="#F3742D" stroke-width="6.5" stroke-miterlimit="10" stroke-linecap="round" stroke-linejoin="round"/>
<path d="M159.205 95.9365V106.299" stroke="#F3742D" stroke-width="6.5" stroke-miterlimit="10" stroke-linecap="round" stroke-linejoin="round"/>
</g>
<path d="M82.5212 169.648L72.2492 176.416V181H69.1292L69.1532 160.552H69.8732L82.5212 169.648ZM77.5052 169.576L72.2492 165.808V172.984L77.5052 169.576ZM95.9717 178.288L93.8117 180.16L89.0117 174.76L87.3557 176.032V179.536H84.4517L84.4757 162.04H85.2197L95.6837 169.888L91.3397 173.08L95.9717 178.288ZM91.0277 169.96L87.3557 167.104V172.792L91.0277 169.96ZM112.53 170.968L104.706 179.896H104.178L96.4498 170.968L104.178 162.064H104.706L112.53 170.968ZM108.738 170.968L104.442 165.904L100.17 170.968L104.442 176.056L108.738 170.968ZM125.903 170.896L115.055 179.896H114.335V162.04H115.055L125.903 170.896ZM121.607 170.92L117.191 167.248V174.544L121.607 170.92ZM138.518 179.512H127.694V162.52H130.598V176.8H135.614V162.52H138.518V179.512ZM151.869 177.856L149.853 180.088L140.325 170.896L149.757 161.92L151.845 164.08L144.381 170.872L151.869 177.856ZM163.407 165.304H159.447V179.512H156.519V165.304H152.583V162.52H163.407V165.304ZM168.385 179.512H165.457V162.52H168.385V179.512ZM186.499 170.968L178.675 179.896H178.147L170.419 170.968L178.147 162.064H178.675L186.499 170.968ZM182.707 170.968L178.411 165.904L174.139 170.968L178.411 176.056L182.707 170.968ZM198.911 179.728H198.047L191.207 170.032V179.512H188.303V162.304H189.167L196.007 171.76V162.52H198.911V179.728ZM212.196 174.352L204.18 180.04L202.428 177.688L207.732 174.088L200.82 167.536L208.668 161.992L210.444 164.32L205.284 167.824L212.196 174.352Z" fill="#F3742D"/>
<defs>
<linearGradient id="paint0_linear_2157_8806" x1="265" y1="-124.5" x2="265.717" y2="86.4675" gradientUnits="userSpaceOnUse">
<stop stop-color="white"/>
<stop offset="1" stop-color="white" stop-opacity="0"/>
</linearGradient>
<clipPath id="clip0_2157_8806">
<rect width="74.0183" height="74.0183" fill="white" transform="translate(102.148 44)"/>
</clipPath>
</defs>
</svg>
