<svg width="384" height="188" viewBox="0 0 384 188" fill="none" xmlns="http://www.w3.org/2000/svg">
<path d="M279 87.5L193 0L105 87.5H279Z" fill="url(#paint0_linear_1569_4174)"/>
<path fill-rule="evenodd" clip-rule="evenodd" d="M183.262 52.2343L163.802 59.4203C163.683 59.4648 163.58 59.5449 163.509 59.6498C163.437 59.7547 163.399 59.8792 163.401 60.0063V102.32C163.396 102.444 163.433 102.566 163.505 102.667C163.578 102.767 163.682 102.841 163.802 102.875L183.509 109.784C183.603 109.819 183.704 109.83 183.804 109.818C183.903 109.805 183.998 109.768 184.08 109.71C184.162 109.653 184.229 109.576 184.274 109.486C184.32 109.397 184.343 109.298 184.342 109.198L184.095 52.8203C184.096 52.72 184.073 52.6209 184.028 52.5316C183.982 52.4423 183.915 52.3654 183.833 52.3077C183.751 52.25 183.656 52.2131 183.557 52.2003C183.457 52.1876 183.356 52.1992 183.262 52.2343Z" stroke="white" stroke-width="6" stroke-linecap="round" stroke-linejoin="round"/>
<path d="M194.242 59.5742V102.752" stroke="white" stroke-width="6" stroke-linecap="round" stroke-linejoin="round"/>
<path d="M206.578 59.5742V102.752" stroke="white" stroke-width="6" stroke-linecap="round" stroke-linejoin="round"/>
<path d="M218.914 59.5742V102.752" stroke="white" stroke-width="6" stroke-linecap="round" stroke-linejoin="round"/>
<path d="M157.561 182V164.504H164.641C169.681 164.504 172.561 168.008 172.561 173.264C172.561 178.52 169.681 182 164.641 182H157.561ZM160.177 179.744H164.257C167.641 179.744 169.873 177.656 169.873 173.216C169.873 168.776 167.617 166.76 164.257 166.76H160.177V179.744ZM175.224 167.36V164.504H177.696V167.36H175.224ZM175.224 182V169.304H177.696V182H175.224ZM186.146 186.248C183.098 186.248 181.154 184.856 180.89 182.6H183.29C183.482 183.728 184.586 184.424 186.194 184.424C188.474 184.424 189.698 183.512 189.698 181.16V178.688H189.53C188.954 180.224 187.394 181.256 185.378 181.256C182.282 181.256 180.266 179.048 180.266 175.184C180.266 171.296 182.33 169.088 185.402 169.088C187.418 169.088 188.954 170.12 189.53 171.656H189.698L189.746 169.304H192.146V180.824C192.146 184.808 189.722 186.248 186.146 186.248ZM186.218 179.336C188.426 179.336 189.65 177.608 189.698 175.928L189.674 174.392C189.65 172.736 188.474 171.032 186.242 171.032C184.13 171.032 182.81 172.544 182.81 175.184C182.81 177.872 184.154 179.336 186.218 179.336ZM195.474 167.36V164.504H197.946V167.36H195.474ZM195.474 182V169.304H197.946V182H195.474ZM205.004 182C202.916 182 202.268 181.064 202.268 179.36V171.32H199.868V169.304H202.268V165.632L204.74 165.344V169.304H207.548V171.32H204.74V178.904C204.74 179.744 205.028 179.96 205.82 179.96H207.548V182H205.004ZM213.974 182.216C210.878 182.216 208.79 179.888 208.79 175.64C208.79 171.392 210.878 169.088 213.974 169.088C216.11 169.088 217.694 170.168 218.294 171.8H218.438L218.534 169.304H220.91V182H218.438V179.48H218.294C217.694 181.112 216.11 182.216 213.974 182.216ZM214.838 180.176C217.19 180.176 218.414 178.328 218.414 176.36V174.92C218.414 172.976 217.19 171.104 214.838 171.104C212.726 171.104 211.334 172.64 211.334 175.64C211.334 178.616 212.726 180.176 214.838 180.176ZM224.373 182V164.504H226.845V182H224.373Z" fill="white"/>
<defs>
<linearGradient id="paint0_linear_1569_4174" x1="317" y1="-124.5" x2="317.717" y2="86.4675" gradientUnits="userSpaceOnUse">
<stop stop-color="white"/>
<stop offset="1" stop-color="#7D7D7D" stop-opacity="0"/>
</linearGradient>
</defs>
</svg>
