<svg width="280" height="188" viewBox="0 0 280 188" fill="none" xmlns="http://www.w3.org/2000/svg">
<path d="M227 87.5L141 0L53 87.5H227Z" fill="url(#paint0_linear_2157_8919)"/>
<path fill-rule="evenodd" clip-rule="evenodd" d="M131.262 52.2343L111.802 59.4203C111.683 59.4648 111.58 59.5449 111.509 59.6498C111.437 59.7547 111.399 59.8792 111.401 60.0063V102.32C111.396 102.444 111.433 102.566 111.505 102.667C111.578 102.767 111.682 102.841 111.802 102.875L131.509 109.784C131.603 109.819 131.704 109.83 131.804 109.818C131.903 109.805 131.998 109.768 132.08 109.71C132.162 109.653 132.229 109.576 132.274 109.486C132.32 109.397 132.343 109.298 132.342 109.198L132.095 52.8203C132.096 52.72 132.073 52.6209 132.028 52.5316C131.982 52.4423 131.915 52.3654 131.833 52.3077C131.751 52.25 131.656 52.2131 131.557 52.2003C131.457 52.1876 131.356 52.1992 131.262 52.2343Z" stroke="#F3742D" stroke-width="6" stroke-linecap="round" stroke-linejoin="round"/>
<path d="M142.242 59.5747V102.752" stroke="#F3742D" stroke-width="6" stroke-linecap="round" stroke-linejoin="round"/>
<path d="M154.578 59.5747V102.752" stroke="#F3742D" stroke-width="6" stroke-linecap="round" stroke-linejoin="round"/>
<path d="M166.914 59.5747V102.752" stroke="#F3742D" stroke-width="6" stroke-linecap="round" stroke-linejoin="round"/>
<path d="M116.66 170.92L103.892 181.48H103.172V160.552H103.892L116.66 170.92ZM112.076 170.92L106.292 166.216V175.72L112.076 170.92ZM121.639 179.512H118.711V162.52H121.639V179.512ZM135.865 179.944H135.289L123.673 170.968L133.321 161.944L135.505 164.032L127.849 170.8L132.961 174.592V169.384H135.865V179.944ZM141.796 179.512H138.868V162.52H141.796V179.512ZM154.653 165.304H150.693V179.512H147.765V165.304H143.829V162.52H154.653V165.304ZM167.055 179.176L164.127 179.992L163.095 176.728H158.127L156.975 180.04L154.071 179.176L160.359 162.352H161.103L167.055 179.176ZM162.231 174.04L160.695 169.024L159.039 174.04H162.231ZM178.15 179.512H168.862V162.52H171.766V176.728H178.15V179.512Z" fill="#F3742D"/>
<defs>
<linearGradient id="paint0_linear_2157_8919" x1="265" y1="-124.5" x2="265.717" y2="86.4675" gradientUnits="userSpaceOnUse">
<stop stop-color="white"/>
<stop offset="1" stop-color="white" stop-opacity="0"/>
</linearGradient>
</defs>
</svg>
