<svg width="132" height="87" viewBox="0 0 132 87" fill="none" xmlns="http://www.w3.org/2000/svg">
<g id="Layer_1" clip-path="url(#clip0_1214_6219)">
<path id="Vector" d="M94.9438 23.3152C94.9438 16.3252 94.9638 9.33518 94.9238 2.35518C94.9238 1.20518 95.2238 0.845182 96.4038 0.855182C107.484 0.895182 118.564 0.895182 129.644 0.855182C130.684 0.855182 131.044 1.12518 131.014 2.20518C130.944 4.78518 130.924 7.37518 131.014 9.95518C131.064 11.2052 130.574 11.4052 129.484 11.3952C122.594 11.3552 115.694 11.3752 108.804 11.3752C107.717 11.3752 107.174 11.9352 107.174 13.0552C107.174 14.3652 107.244 15.6852 107.154 16.9952C107.084 18.0352 107.494 18.2752 108.454 18.2652C114.674 18.2252 120.884 18.2452 127.104 18.2452C128.19 18.2452 128.734 18.8085 128.734 19.9352C128.734 22.2252 128.684 24.5052 128.754 26.7952C128.784 27.8152 128.434 28.0852 127.454 28.0852C121.234 28.0452 115.024 28.0652 108.804 28.0652C107.717 28.0652 107.174 28.6285 107.174 29.7552C107.174 31.1552 107.244 32.5552 107.154 33.9452C107.084 34.9952 107.494 35.2252 108.464 35.2252C115.524 35.1952 122.584 35.2052 129.654 35.2052C130.74 35.2052 131.287 35.7618 131.294 36.8752C131.294 39.4552 131.264 42.0452 131.304 44.6252C131.314 45.4552 131.014 45.7252 130.204 45.7252C118.824 45.7052 107.454 45.7052 96.0738 45.7252C95.0138 45.7252 94.9438 45.2152 94.9438 44.3952C94.9638 37.3652 94.9538 30.3352 94.9438 23.3052" fill="#231F20"/>
<path id="Vector_2" d="M1.51457 23.2151C1.51457 16.2751 1.54457 9.33515 1.48457 2.38515C1.47457 1.13515 1.85457 0.815147 3.05457 0.845147C6.18457 0.925147 9.31457 0.915147 12.4346 0.845147C13.5546 0.825147 13.8746 1.16515 13.8646 2.27515C13.8246 12.3951 13.8346 22.5051 13.8446 32.6251C13.8446 35.1751 13.5246 34.8751 16.0346 34.8851C22.0746 34.8951 28.1246 34.9151 34.1646 34.8651C35.2546 34.8651 35.6346 35.1351 35.6046 36.2851C35.5246 39.0351 35.5446 41.7851 35.5946 44.5351C35.6046 45.3951 35.3646 45.7251 34.4646 45.7151C23.8546 45.6951 13.2446 45.6851 2.64457 45.7151C1.60457 45.7151 1.49457 45.2551 1.49457 44.4051C1.51457 37.3351 1.50457 30.2651 1.50457 23.1951" fill="#231F20"/>
<path id="Vector_3" d="M74.3042 20.3453C70.6942 25.8653 67.0842 31.3753 63.4342 36.9653C63.0042 36.4153 63.1542 35.9353 63.1542 35.4953C63.1442 30.1553 63.1542 24.8253 63.1342 19.4853C63.1342 18.6453 63.3342 17.9353 63.7842 17.2253C66.9742 12.0853 70.1442 6.92527 73.2942 1.75527C73.6742 1.13527 74.0742 0.865267 74.8042 0.875267C78.4442 0.905267 82.0842 0.915267 85.7142 0.875267C86.6842 0.865267 86.9242 1.20527 86.9242 2.12527C86.8942 16.2753 86.8942 30.4253 86.9242 44.5653C86.9242 45.4353 86.6742 45.7553 85.7742 45.7453C82.4742 45.7053 79.1742 45.6853 75.8742 45.7453C74.8142 45.7653 74.6242 45.3553 74.6242 44.4053C74.6542 36.8653 74.6442 29.3253 74.6442 21.7853V20.4453C74.5342 20.4153 74.4342 20.3753 74.3242 20.3453" fill="#231F20"/>
<path id="Vector_4" d="M39.1951 0.905258C41.1551 0.815258 43.0651 1.13526 44.9551 1.64526C48.3951 2.57526 50.8551 4.65526 52.3751 7.86526C52.6651 8.47526 53.0351 9.04526 53.3551 9.64526C54.1751 11.1753 55.2451 12.0253 57.1851 11.9253C59.6751 11.8053 60.3451 12.7753 59.6751 15.1453C57.9751 21.0953 55.4951 26.7053 51.7251 31.6253C50.0951 33.7453 48.0451 35.6453 45.1451 36.0553C43.4851 36.2953 42.7351 35.8353 42.1451 34.2353C41.4051 32.2153 41.3351 30.0853 41.1951 27.9853C41.0251 25.4153 40.9751 22.8253 40.4051 20.2953C39.8051 17.6453 38.6651 16.6553 35.9751 16.4253C34.9251 16.3353 33.8651 16.2253 32.8251 16.0453C29.1751 15.4153 27.5251 13.1053 28.0651 9.41526C28.8251 4.28526 32.2551 1.20526 37.5451 0.905258C38.0951 0.875258 38.6451 0.905258 39.1951 0.905258Z" fill="#231F20"/>
<path id="Vector_5" d="M45.2051 45.7152C43.5951 45.7152 41.9951 45.6852 40.3851 45.7252C39.6051 45.7452 39.2151 45.5552 39.2351 44.6752C39.2751 42.5652 39.2651 40.4452 39.2351 38.3252C39.2251 37.5552 39.5251 37.3052 40.2851 37.3052C43.6251 37.3352 46.9551 37.3352 50.2951 37.3052C51.1251 37.3052 51.4051 37.5952 51.3851 38.4152C51.3451 40.4852 51.3451 42.5652 51.3851 44.6352C51.4051 45.4852 51.0551 45.7252 50.2551 45.7052C48.5651 45.6652 46.8751 45.6952 45.1851 45.6952" fill="#231F20"/>
<path id="Vector_6" d="M129.625 62.2954C129.425 62.4154 129.255 62.5154 129.085 62.6254C127.185 63.8754 124.965 63.6154 123.455 61.9854C121.965 60.3654 121.865 57.8554 123.225 56.1654C124.655 54.3954 126.955 53.9654 128.905 55.1254C129.275 55.3454 129.605 55.8254 129.885 54.9754C130.045 54.4754 130.615 54.6854 131.015 54.7454C131.455 54.8254 131.425 55.2254 131.425 55.5554C131.425 58.0454 131.475 60.5454 131.395 63.0354C131.335 64.7854 130.665 66.2854 128.855 66.9054C126.905 67.5754 125.025 67.3754 123.325 66.1254C123.075 65.9454 122.685 65.6654 123.075 65.3254C123.425 65.0154 123.835 64.5254 124.385 64.9854C125.145 65.6154 126.015 65.8154 126.985 65.7754C128.905 65.7054 129.975 64.3454 129.625 62.2954ZM129.805 58.8854C129.795 57.1154 128.595 55.8954 126.895 55.8954C125.165 55.8954 123.875 57.2054 123.885 58.9654C123.885 60.6954 125.205 61.9654 126.965 61.9454C128.635 61.9254 129.815 60.6554 129.805 58.8854Z" fill="#231F20"/>
<path id="Vector_7" d="M24.6847 59.1751C24.6847 61.8551 22.6047 63.8951 19.9247 63.8651C17.3347 63.8351 15.2947 61.7551 15.3047 59.1551C15.3047 56.5351 17.3547 54.4751 19.9547 54.4751C22.6747 54.4751 24.6947 56.4851 24.6947 59.1751M20.0047 62.3851C21.7847 62.3851 23.1547 60.9551 23.1247 59.1251C23.0947 57.2951 21.8147 55.9351 20.0847 55.8951C18.2947 55.8551 16.9147 57.2451 16.9047 59.1051C16.9047 61.0051 18.2147 62.3951 19.9947 62.3951" fill="#231F20"/>
<path id="Vector_8" d="M108.825 55.7253C110.255 54.4253 111.595 54.1253 113.045 54.8153C114.515 55.5153 115.005 56.8253 114.995 58.3753C114.985 59.8153 114.995 61.2553 114.995 62.6953C114.995 63.1953 114.975 63.6253 114.285 63.6453C113.595 63.6653 113.425 63.3053 113.435 62.7053C113.455 61.3553 113.465 59.9953 113.435 58.6453C113.385 56.8353 112.675 55.9753 111.255 55.9453C109.765 55.9153 108.845 56.9253 108.795 58.7053C108.755 59.9753 108.795 61.2453 108.785 62.5153C108.785 63.0553 108.875 63.6453 108.015 63.6653C107.175 63.6753 107.195 63.1353 107.195 62.5653C107.195 60.3253 107.195 58.0753 107.195 55.8353C107.195 55.3653 107.025 54.7753 107.815 54.6753C108.485 54.5953 108.855 54.8253 108.825 55.7253Z" fill="#231F20"/>
<path id="Vector_9" d="M68.8242 59.2051C68.8242 60.3951 68.8242 61.5751 68.8242 62.7651C68.8242 63.1451 68.8442 63.5751 68.3142 63.6251C67.9542 63.6551 67.4442 63.7751 67.3242 63.3051C67.1042 62.4251 66.8142 62.9951 66.5042 63.1951C64.1542 64.7351 61.2642 63.4151 61.0542 60.6251C60.9242 58.9451 61.0342 57.2351 61.0242 55.5451C61.0242 54.9751 61.2142 54.6851 61.8242 54.6851C62.4642 54.6851 62.6042 55.0151 62.6042 55.5651C62.6042 57.0051 62.5842 58.4451 62.6342 59.8851C62.6942 61.5851 63.4242 62.3651 64.8642 62.3751C66.1942 62.3751 67.1342 61.4551 67.2342 59.9051C67.3142 58.5551 67.2642 57.1951 67.2742 55.8351C67.2742 55.3051 67.1342 54.6951 68.0142 54.6851C68.8742 54.6651 68.8242 55.2151 68.8242 55.7851C68.8242 56.9251 68.8242 58.0751 68.8242 59.2151" fill="#231F20"/>
<path id="Vector_10" d="M31.9944 59.0452C31.9944 57.8652 31.9944 56.6752 31.9944 55.4952C31.9944 55.1652 31.9544 54.7552 32.4244 54.7052C32.8144 54.6652 33.3544 54.4652 33.5044 55.0152C33.6844 55.6952 33.9144 55.4052 34.2644 55.1852C36.8944 53.5452 39.6044 54.9152 39.7744 57.9852C39.8544 59.5452 39.7844 61.1152 39.7944 62.6752C39.7944 63.2752 39.6344 63.6452 38.9444 63.6452C38.1844 63.6452 38.1744 63.1652 38.1744 62.6252C38.1744 61.1852 38.2144 59.7452 38.1644 58.3152C38.1044 56.7352 37.3244 55.9252 35.9644 55.9352C34.6144 55.9352 33.6344 56.9052 33.5744 58.3752C33.5144 59.8152 33.5444 61.2552 33.5544 62.6852C33.5544 63.2752 33.4444 63.6752 32.7244 63.6452C32.0644 63.6252 31.9844 63.2352 31.9844 62.7152C31.9844 61.4852 31.9844 60.2652 31.9844 59.0352" fill="#231F20"/>
<path id="Vector_11" d="M50.4747 63.8851C49.2847 63.8351 48.2746 63.6951 47.4646 62.9851C47.1546 62.7051 46.5447 62.3451 46.9747 61.8851C47.3147 61.5351 47.9046 61.1051 48.5046 61.7851C49.1247 62.4951 50.0047 62.4951 50.8647 62.3851C51.5447 62.3051 52.0947 61.9951 52.1347 61.2151C52.1747 60.4551 51.6147 60.2251 51.0047 60.0851C50.2647 59.9151 49.5046 59.7951 48.7846 59.5651C47.8946 59.2851 47.1946 58.7351 47.0546 57.7351C46.9046 56.6951 47.2246 55.8151 48.0746 55.1551C49.3846 54.1351 51.6747 54.2451 52.7547 55.3951C53.0147 55.6751 53.5346 56.0351 53.1046 56.4351C52.7746 56.7451 52.2146 57.0151 51.7446 56.5351C51.1946 55.9651 50.5446 55.7551 49.7846 55.9151C49.1746 56.0451 48.6446 56.3651 48.6246 57.0751C48.6046 57.7351 49.0946 58.0351 49.6546 58.1851C50.3446 58.3751 51.0647 58.4751 51.7547 58.6851C52.9047 59.0351 53.8846 59.5751 53.8346 61.0251C53.7846 62.3751 52.9746 63.3651 51.5646 63.7151C51.1546 63.8151 50.7347 63.8451 50.4747 63.8851Z" fill="#231F20"/>
<path id="Vector_12" d="M5.05528 54.4551C6.38528 54.4551 7.53528 54.9051 8.46528 55.8651C8.68528 56.0951 9.17528 56.3951 8.67528 56.7851C8.34528 57.0351 7.96528 57.4851 7.47528 56.9851C7.29528 56.8051 7.11528 56.6251 6.90528 56.4851C5.61528 55.5951 3.74528 55.8251 2.76528 56.9851C1.72528 58.2151 1.83528 60.3551 2.99528 61.5151C4.05528 62.5851 5.80528 62.6651 7.03528 61.7151C7.13528 61.6351 7.23528 61.5551 7.31528 61.4551C7.81528 60.8351 8.33528 61.1351 8.72528 61.5251C9.19528 61.9851 8.63528 62.2751 8.37528 62.5451C6.94528 64.0151 4.61528 64.2951 2.77528 63.2451C0.895284 62.1751 0.0252836 59.9651 0.625284 57.7851C1.15528 55.8651 3.01528 54.4651 5.06528 54.4651" fill="#231F20"/>
<path id="Vector_13" d="M86.6751 59.0554C86.6751 58.4254 86.6751 57.7854 86.6751 57.1554C86.6751 56.6454 86.5851 56.2154 85.9551 56.1854C85.4751 56.1654 85.2951 55.9254 85.3051 55.4554C85.3051 55.0154 85.4251 54.6954 85.9151 54.6854C86.6351 54.6654 86.6951 54.1754 86.6851 53.6354C86.6751 53.0754 86.8751 52.7754 87.4951 52.7854C88.1351 52.7854 88.3151 53.1354 88.2751 53.6654C88.2251 54.4554 88.6051 54.7154 89.3451 54.6754C89.8751 54.6454 90.3651 54.6954 90.3551 55.4554C90.3451 56.2354 89.8151 56.2054 89.3051 56.1854C88.5251 56.1554 88.2651 56.5354 88.2851 57.2654C88.3151 58.4454 88.2951 59.6354 88.3051 60.8254C88.3051 61.6954 88.6251 62.3254 89.6151 62.3354C90.1551 62.3354 90.3751 62.5754 90.3351 63.1154C90.2851 63.7054 89.8851 63.7354 89.4351 63.7554C87.9751 63.8254 86.9751 63.0554 86.7851 61.6054C86.6651 60.7754 86.6951 59.9154 86.6551 59.0754C86.6651 59.0754 86.6751 59.0754 86.6851 59.0754" fill="#231F20"/>
<path id="Vector_14" d="M76.5547 57.4751C76.5547 55.7451 76.5547 54.0051 76.5547 52.2751C76.5547 51.7251 76.5847 51.2651 77.3447 51.2751C78.0747 51.2751 78.1647 51.6851 78.1647 52.2551C78.1647 55.7251 78.1647 59.1951 78.1647 62.6651C78.1647 63.2251 78.0947 63.6551 77.3647 63.6651C76.6247 63.6751 76.5547 63.2451 76.5547 62.6751C76.5547 60.9451 76.5547 59.2051 76.5547 57.4751Z" fill="#231F20"/>
<path id="Vector_15" d="M97.8247 59.125C97.8247 57.945 97.8347 56.765 97.8247 55.585C97.8147 54.965 98.0147 54.645 98.6847 54.655C99.4047 54.655 99.4947 55.065 99.4847 55.645C99.4747 57.965 99.4747 60.285 99.4847 62.605C99.4847 63.225 99.4147 63.685 98.6147 63.665C97.7847 63.655 97.8047 63.115 97.8047 62.545C97.8047 61.405 97.8047 60.265 97.8047 59.125" fill="#231F20"/>
<path id="Vector_16" d="M99.5043 52.1452C99.4643 52.6852 99.1543 52.9952 98.6443 53.0152C98.1843 53.0252 97.8443 52.7452 97.7943 52.2752C97.7343 51.7352 98.0543 51.3952 98.5743 51.3452C99.1143 51.2952 99.3943 51.6352 99.5043 52.1452Z" fill="#231F20"/>
<path id="Vector_17" d="M131.435 73.6553H0.394531V86.1553H131.435V73.6553Z" fill="#231F20"/>
<path id="Vector_18" d="M5.38477 75.8452H7.03477V81.8352H10.7748V83.3352H5.38477V75.8452Z" fill="white"/>
<path id="Vector_19" d="M11.334 75.5254H13.044V76.9754H11.334V75.5254ZM11.384 77.5954H13.014V83.3354H11.384V77.5954Z" fill="white"/>
<path id="Vector_20" d="M16.5739 85.0754C15.6439 85.0754 14.7639 84.8653 14.0339 84.4753L14.5939 83.2554C15.1839 83.5854 15.7739 83.7754 16.5339 83.7754C17.6439 83.7754 18.1739 83.2354 18.1739 82.2154V81.9353C17.6939 82.5153 17.1639 82.8653 16.3039 82.8653C14.9639 82.8653 13.7539 81.8853 13.7539 80.1853V80.1654C13.7539 78.4554 14.9839 77.4854 16.3039 77.4854C17.1939 77.4854 17.7139 77.8654 18.1539 78.3454V77.5954H19.7839V82.0354C19.7839 84.1954 18.7139 85.0654 16.5839 85.0654M16.7639 78.8354C15.9739 78.8354 15.3739 79.3854 15.3739 80.1654V80.1853C15.3739 80.9753 15.9739 81.5154 16.7639 81.5154C17.5539 81.5154 18.1639 80.9653 18.1639 80.1853V80.1654C18.1639 79.3854 17.5539 78.8354 16.7639 78.8354Z" fill="white"/>
<path id="Vector_21" d="M24.3236 80.1351C24.3236 79.3651 23.9636 78.9651 23.3336 78.9651C22.7036 78.9651 22.3136 79.3651 22.3136 80.1351V83.3351H20.6836V75.5151H22.3136V78.4051C22.6936 77.9251 23.1736 77.4851 23.9936 77.4851C25.2236 77.4851 25.9436 78.2951 25.9436 79.6151V83.3351H24.3136V80.1351H24.3236Z" fill="white"/>
<path id="Vector_22" d="M28.7643 83.4352C27.7643 83.4352 27.0943 83.0353 27.0943 81.7153V78.9953H26.4043V77.6053H27.0943V76.1353H28.7243V77.6053H30.0743V78.9953H28.7243V81.4453C28.7243 81.8153 28.8843 82.0053 29.2543 82.0053C29.5543 82.0053 29.8243 81.9353 30.0543 81.8053V83.1152C29.7143 83.3152 29.3143 83.4453 28.7643 83.4453" fill="white"/>
<path id="Vector_23" d="M35.0737 81.625H33.3438V83.335H35.0737V81.625Z" fill="white"/>
<path id="Vector_24" d="M44.6354 78.4452L42.5254 81.6452H42.4854L40.3954 78.4752V83.3352H38.7754V75.8452H40.5554L42.5254 79.0152L44.4954 75.8452H46.2754V83.3352H44.6354V78.4452Z" fill="white"/>
<path id="Vector_25" d="M52.694 81.0354H48.704C48.864 81.7754 49.374 82.1553 50.104 82.1553C50.654 82.1553 51.044 81.9854 51.494 81.5654L52.424 82.3854C51.894 83.0454 51.114 83.4554 50.084 83.4554C48.364 83.4554 47.084 82.2454 47.084 80.4954V80.4753C47.084 78.8353 48.254 77.4854 49.924 77.4854C51.844 77.4854 52.714 78.9754 52.714 80.6054V80.6254C52.714 80.7854 52.704 80.8854 52.694 81.0354ZM49.924 78.7953C49.254 78.7953 48.814 79.2754 48.684 80.0154H51.134C51.034 79.2854 50.604 78.7953 49.924 78.7953Z" fill="white"/>
<path id="Vector_26" d="M55.4053 83.4451C54.6053 83.4451 53.7053 83.1751 52.9453 82.5751L53.6353 81.5051C54.2553 81.9551 54.9053 82.1851 55.4453 82.1851C55.9153 82.1851 56.1253 82.0151 56.1253 81.7551V81.7351C56.1253 81.3851 55.5653 81.2651 54.9353 81.0751C54.1353 80.8351 53.2253 80.4651 53.2253 79.3551V79.3351C53.2253 78.1651 54.1653 77.5151 55.3253 77.5151C56.0553 77.5151 56.8453 77.7651 57.4653 78.1751L56.8453 79.2951C56.2753 78.9651 55.7153 78.7651 55.2953 78.7651C54.8953 78.7651 54.6953 78.9351 54.6953 79.1651V79.1851C54.6953 79.5051 55.2353 79.6551 55.8653 79.8651C56.6653 80.1351 57.6053 80.5151 57.6053 81.5651V81.5851C57.6053 82.8551 56.6553 83.4351 55.4153 83.4351" fill="white"/>
<path id="Vector_27" d="M61.8136 82.525C61.4336 83.005 60.9536 83.445 60.1336 83.445C58.9036 83.445 58.1836 82.635 58.1836 81.315V77.605H59.8136V80.805C59.8136 81.575 60.1736 81.975 60.8036 81.975C61.4336 81.975 61.8236 81.575 61.8236 80.805V77.605H63.4536V83.345H61.8236V82.535L61.8136 82.525Z" fill="white"/>
<path id="Vector_28" d="M65.9855 81.215V83.335H64.3555V77.595H65.9855V78.755C66.3155 77.965 66.8555 77.445 67.8155 77.495V79.195H67.7355C66.6555 79.195 65.9855 79.845 65.9855 81.215Z" fill="white"/>
<path id="Vector_29" d="M73.4638 81.0354H69.4738C69.6338 81.7754 70.1438 82.1553 70.8738 82.1553C71.4238 82.1553 71.8138 81.9854 72.2638 81.5654L73.1938 82.3854C72.6538 83.0454 71.8837 83.4554 70.8438 83.4554C69.1237 83.4554 67.8438 82.2454 67.8438 80.4954V80.4753C67.8438 78.8353 69.0138 77.4854 70.6838 77.4854C72.6038 77.4854 73.4738 78.9754 73.4738 80.6054V80.6254C73.4738 80.7854 73.4738 80.8854 73.4538 81.0354M70.6938 78.7953C70.0138 78.7953 69.5838 79.2754 69.4538 80.0154H71.9038C71.8038 79.2854 71.3838 78.7953 70.6938 78.7953Z" fill="white"/>
<path id="Vector_30" d="M78.5054 81.625H76.7754V83.335H78.5054V81.625Z" fill="white"/>
<path id="Vector_31" d="M82.2051 75.8452H87.8651V77.3052H83.8451V78.8252H87.3851V80.2952H83.8451V81.8652H87.9151V83.3352H82.2051V75.8452Z" fill="white"/>
<path id="Vector_32" d="M91.0553 81.5452L89.8953 83.3352H88.1953L90.2053 80.4252L88.2653 77.5952H90.0153L91.0853 79.2652L92.1653 77.5952H93.8653L91.9253 80.3952L93.9553 83.3352H92.2053L91.0553 81.5452Z" fill="white"/>
<path id="Vector_33" d="M97.8048 83.4454C96.9348 83.4454 96.4048 83.0454 96.0148 82.5854V85.0453H94.3848V77.5954H96.0148V78.4154C96.4148 77.8754 96.9548 77.4854 97.8048 77.4854C99.1448 77.4854 100.415 78.5354 100.415 80.4454V80.4654C100.415 82.3854 99.1648 83.4254 97.8048 83.4254M97.3848 78.8754C96.6248 78.8754 95.9948 79.5054 95.9948 80.4554V80.4753C95.9948 81.4253 96.6248 82.0554 97.3848 82.0554C98.1448 82.0554 98.7848 81.4353 98.7848 80.4753V80.4554C98.7848 79.5054 98.1448 78.8754 97.3848 78.8754Z" fill="white"/>
<path id="Vector_34" d="M106.405 81.0354H102.415C102.575 81.7754 103.085 82.1553 103.815 82.1553C104.365 82.1553 104.755 81.9854 105.205 81.5654L106.135 82.3854C105.595 83.0454 104.825 83.4554 103.785 83.4554C102.065 83.4554 100.785 82.2454 100.785 80.4954V80.4753C100.785 78.8353 101.955 77.4854 103.625 77.4854C105.545 77.4854 106.415 78.9754 106.415 80.6054V80.6254C106.415 80.7854 106.415 80.8854 106.395 81.0354M103.635 78.7953C102.955 78.7953 102.525 79.2754 102.395 80.0154H104.845C104.745 79.2854 104.325 78.7953 103.635 78.7953Z" fill="white"/>
<path id="Vector_35" d="M108.735 81.215V83.335H107.105V77.595H108.735V78.755C109.065 77.965 109.605 77.445 110.565 77.495V79.195H110.475C109.395 79.195 108.735 79.845 108.735 81.215Z" fill="white"/>
<path id="Vector_36" d="M112.985 83.4352C111.995 83.4352 111.315 83.0353 111.315 81.7153V78.9953H110.635V77.6053H111.315V76.1353H112.945V77.6053H114.295V78.9953H112.945V81.4453C112.945 81.8153 113.105 82.0053 113.465 82.0053C113.765 82.0053 114.035 81.9353 114.265 81.8053V83.1152C113.925 83.3152 113.525 83.4453 112.975 83.4453" fill="white"/>
<path id="Vector_37" d="M114.984 75.5254H116.694V76.9754H114.984V75.5254ZM115.024 77.5954H116.654V83.3354H115.024V77.5954Z" fill="white"/>
<path id="Vector_38" d="M119.655 83.4451C118.855 83.4451 117.955 83.1751 117.195 82.5751L117.895 81.5051C118.515 81.9551 119.165 82.1851 119.705 82.1851C120.175 82.1851 120.385 82.0151 120.385 81.7551V81.7351C120.385 81.3851 119.825 81.2651 119.195 81.0751C118.395 80.8351 117.485 80.4651 117.485 79.3551V79.3351C117.485 78.1651 118.425 77.5151 119.585 77.5151C120.315 77.5151 121.105 77.7651 121.725 78.1751L121.105 79.2951C120.535 78.9651 119.965 78.7651 119.555 78.7651C119.145 78.7651 118.955 78.9351 118.955 79.1651V79.1851C118.955 79.5051 119.505 79.6551 120.125 79.8651C120.925 80.1351 121.855 80.5151 121.855 81.5651V81.5851C121.855 82.8551 120.905 83.4351 119.665 83.4351" fill="white"/>
<path id="Vector_39" d="M127.815 81.0354H123.825C123.985 81.7754 124.495 82.1553 125.225 82.1553C125.775 82.1553 126.165 81.9854 126.615 81.5654L127.545 82.3854C127.005 83.0454 126.235 83.4554 125.195 83.4554C123.475 83.4554 122.195 82.2454 122.195 80.4954V80.4753C122.195 78.8353 123.365 77.4854 125.035 77.4854C126.955 77.4854 127.825 78.9754 127.825 80.6054V80.6254C127.825 80.7854 127.825 80.8854 127.805 81.0354M125.045 78.7953C124.365 78.7953 123.935 79.2754 123.805 80.0154H126.255C126.155 79.2854 125.735 78.7953 125.045 78.7953Z" fill="white"/>
</g>
<defs>
<clipPath id="clip0_1214_6219">
<rect width="131.04" height="85.31" fill="white" transform="translate(0.394531 0.845215)"/>
</clipPath>
</defs>
</svg>
