<svg width="200" height="75" viewBox="0 0 200 75" fill="none" xmlns="http://www.w3.org/2000/svg">
<g id="Group">
<path id="Vector" d="M199.484 0H0.0703125V75H199.484V0Z" fill="white"/>
<path id="Vector_2" d="M71.0998 65.725C65.3868 65.8296 61.2763 63.1472 58.5766 58.3487C56.5997 54.8391 56.321 51.0333 57.5838 47.1231C58.9511 42.8993 61.7204 40.0167 65.7352 38.2575C67.7817 37.3605 69.9415 37.1602 72.1449 37.2822C73.2073 37.3431 74.0782 38.1443 74.0695 39.0065C74.0608 39.9209 72.9896 40.7221 71.9184 40.8005C70.4902 40.8963 69.001 40.8963 67.6685 41.3405C63.3316 42.7687 60.5622 46.618 60.327 51.2075C60.118 55.3877 62.6523 59.4982 66.6235 61.3793C71.8488 63.8613 78.3978 61.4229 80.8449 56.1976C82.4909 52.688 82.0641 49.3525 80.5314 45.9561C79.1641 42.9516 77.9362 39.8948 76.6473 36.8641C74.9491 32.8668 73.2334 28.8695 71.5439 24.8721C70.2638 21.8415 69.0271 18.7847 67.7556 15.7453C67.2853 14.6132 66.6496 13.542 66.2838 12.3838C66.0661 11.6783 65.9529 10.7117 66.2664 10.1107C66.9457 8.82185 68.7136 9.0831 69.3406 10.5375C70.5773 13.3678 71.7355 16.2243 72.9286 19.0721C74.4091 22.5991 75.8896 26.1175 77.3701 29.6445C78.6677 32.7449 79.9653 35.8452 81.263 38.9542C82.2906 41.4101 83.3356 43.8486 84.3546 46.3044C85.3822 48.769 85.6957 51.3381 85.1645 53.9595C84.0062 59.6986 80.6533 63.5478 75.0275 65.2722C73.7821 65.6554 72.3974 65.5944 71.0737 65.7337" fill="#B6333F"/>
<path id="Vector_3" d="M45.5306 53.2893C43.6669 53.2893 41.7945 53.2893 39.9308 53.2893C39.6521 53.2893 39.3647 53.3067 39.086 53.2718C38.3632 53.176 37.7014 52.8625 37.7275 52.07C37.7536 51.2601 38.3632 50.8682 39.1819 50.8682C42.3867 50.8682 45.5915 50.8508 48.7964 50.8856C50.4859 50.9031 51.2784 51.0859 50.1723 48.8303C48.9357 46.2961 45.9921 44.4499 43.1531 44.6066C40.2095 44.7721 37.3617 46.9493 36.4995 49.6925C35.4893 52.9061 36.3863 55.5971 38.8248 57.7917C40.9497 59.7076 44.233 60.0299 46.9414 58.6364C47.5945 58.3055 48.178 57.8265 48.7441 57.365C49.3972 56.8337 49.9894 56.8773 50.4946 57.4956C50.9648 58.0791 50.8255 58.7061 50.2943 59.1938C47.9516 61.3449 45.1822 62.2854 42.0383 61.7977C36.7695 60.9791 33.077 56.2589 33.7214 50.964C34.2091 46.9493 36.935 43.3612 41.8206 42.351C45.4783 41.5933 49.9633 43.5267 51.8183 46.9493C52.5324 48.273 52.9243 49.8145 53.2639 51.3037C53.5775 52.6884 52.9766 53.2718 51.557 53.2805C49.5453 53.2893 47.5423 53.2805 45.5306 53.2805V53.298" fill="#B6333F"/>
<path id="Vector_4" d="M169.1 55.867C167.654 55.867 166.209 55.8931 164.763 55.8583C163.962 55.8408 163.535 56.2414 163.23 56.8946C162.612 58.1922 162.02 59.5072 161.332 60.7613C161.018 61.3274 160.67 62.1286 159.721 61.5625C159.216 61.2577 159.094 60.9268 159.381 60.3433C162.081 54.9525 164.754 49.5444 167.437 44.1362C167.532 43.9534 167.646 43.7617 167.776 43.605C168.212 43.1086 168.665 42.6209 169.1 42.1245C169.527 42.647 170.049 43.126 170.354 43.7095C173.132 49.1873 175.858 54.6913 178.636 60.1691C179.002 60.8745 178.897 61.4232 178.262 61.6061C177.896 61.7106 177.156 61.3709 176.938 61.0139C176.198 59.7859 175.588 58.4796 174.987 57.1733C174.587 56.2937 174.099 55.7624 173.002 55.8495C171.704 55.9627 170.398 55.8757 169.091 55.8757V55.8495L169.1 55.867ZM169.135 54.0033C170.258 53.9946 171.39 53.9946 172.514 53.9946C173.071 53.9946 173.35 53.7856 173.071 53.2195C171.93 50.8942 170.781 48.5777 169.605 46.2699C169.492 46.0522 169.239 45.8431 169.004 45.7822C168.891 45.7561 168.63 46.0347 168.534 46.2263C167.419 48.4471 166.331 50.6765 165.225 52.906C164.815 53.7246 164.955 53.9946 165.86 54.0033C166.949 54.012 168.046 54.0033 169.135 54.0033Z" fill="#B6333F"/>
<path id="Vector_5" d="M127.097 54.0032C127.559 54.517 127.794 54.8044 128.055 55.0656C129.692 56.7116 131.347 58.3401 132.976 59.9948C133.42 60.4477 133.733 60.9441 133.045 61.5101C132.401 62.0414 131.983 61.5711 131.6 61.1966C129.919 59.542 128.264 57.8612 126.601 56.1891C125.86 55.4401 125.138 54.665 124.389 53.9248C124.258 53.7942 123.927 53.6374 123.866 53.6984C123.709 53.8377 123.579 54.0902 123.579 54.2993C123.57 56.3371 123.561 58.375 123.605 60.4215C123.622 61.1095 123.492 61.6756 122.717 61.7017C121.872 61.7278 121.846 61.066 121.846 60.4302C121.846 54.8305 121.846 49.2307 121.854 43.631C121.854 42.4031 122.029 42.1941 123.23 42.1854C124.815 42.1679 126.4 42.1505 127.985 42.2115C130.946 42.316 133.376 44.8502 133.463 47.8635C133.55 50.8593 131.26 53.5329 128.325 53.8551C128.02 53.89 127.724 53.9335 127.088 54.0206M123.596 48.2728H123.579C123.579 49.3266 123.596 50.3803 123.579 51.4428C123.57 52.0524 123.701 52.3311 124.432 52.2353C125.399 52.1047 126.392 52.1308 127.376 52.1047C129.806 52.0524 131.617 50.3455 131.652 48.0725C131.687 45.8343 129.867 44.049 127.437 43.9619C126.522 43.9271 125.608 44.0055 124.693 43.9619C123.918 43.9271 123.596 44.258 123.596 45.007C123.605 46.0956 123.596 47.1929 123.596 48.2815" fill="#B6333F"/>
<path id="Vector_6" d="M106.012 60.9615C105.768 61.1792 105.559 61.4841 105.272 61.5886C105.037 61.6756 104.575 61.6234 104.453 61.4579C103.983 60.8047 103.591 60.108 103.217 59.3939C102.746 58.4882 102.407 57.5128 101.858 56.6681C101.579 56.2501 100.952 55.832 100.465 55.8146C97.6865 55.745 94.8997 55.8408 92.1128 55.7624C91.0852 55.7363 90.554 56.1804 90.1534 56.999C89.5263 58.2879 88.9428 59.6117 88.2113 60.8483C87.9936 61.2228 87.3056 61.6582 86.9572 61.5711C86.2605 61.3969 86.2431 60.796 86.5828 60.1255C89.2651 54.8044 91.9212 49.4659 94.5861 44.1274C94.7864 43.7181 94.9345 43.2827 95.1783 42.8995C95.8054 41.9241 96.563 41.9502 97.0768 42.9692C98.4615 45.7212 99.8201 48.4818 101.187 51.2425C102.694 54.2819 104.201 57.3299 105.707 60.3693C105.786 60.5261 105.864 60.6741 106.003 60.9528M95.936 54.0467V54.0293C97.0246 54.0293 98.1132 54.0293 99.2018 54.0293C100.316 54.0293 100.438 53.768 99.942 52.8014C98.8273 50.5893 97.7561 48.3599 96.6501 46.1392C96.5456 45.9301 96.2234 45.6254 96.1102 45.6689C95.8576 45.7647 95.5963 46.0085 95.4744 46.2524C94.3597 48.508 93.2624 50.7723 92.1738 53.0452C92.0519 53.2978 92.0519 53.6113 91.9996 53.8987C92.2609 53.9509 92.5222 54.038 92.7747 54.0467C93.8285 54.0642 94.8822 54.0467 95.936 54.0467Z" fill="#B6333F"/>
<path id="Vector_7" d="M20.1085 52.0174C20.1085 49.2393 20.1085 46.4525 20.1085 43.6744C20.1085 42.4465 20.422 42.1155 21.6761 42.1068C23.0172 42.0894 24.3497 42.0894 25.6909 42.1068C28.6606 42.1591 31.3777 43.9182 32.2486 46.7138C33.2762 50.0318 32.2137 53.2105 28.8782 55.0568C27.72 55.6925 27.6852 55.7274 28.5996 56.6505C29.723 57.7739 30.8377 58.8974 31.9524 60.0208C32.3705 60.4388 32.7798 60.8917 32.266 61.4752C31.7086 62.1022 31.1948 61.6058 30.8203 61.24C29.0176 59.507 27.2497 57.7391 25.4993 55.9538C25.2119 55.6577 24.8548 54.961 24.968 54.8478C25.2815 54.4994 25.7953 54.2207 26.2656 54.1511C27.7896 53.9334 28.9828 53.2105 29.8972 52.0087C31.099 50.4324 31.2122 48.6471 30.4633 46.9141C29.6882 45.1114 28.2164 44.0402 26.2221 43.8747C25.2032 43.7876 24.1755 43.8747 23.1566 43.8312C22.1551 43.7876 21.8067 44.2143 21.8154 45.2159C21.859 50.0057 21.8416 54.7955 21.8503 59.5853C21.8503 59.9337 21.8677 60.2907 21.8503 60.6391C21.8154 61.2052 21.8067 61.9193 21.0403 61.8758C20.3698 61.8322 20.0911 61.2749 20.0998 60.5782C20.1172 57.7217 20.0998 54.8739 20.0998 52.0174" fill="#B6333F"/>
<path id="Vector_8" d="M150.627 59.9163C152.63 59.9947 154.337 59.2806 155.835 57.9742C156.114 57.7304 156.488 57.4517 156.81 57.4604C157.124 57.4604 157.603 57.7304 157.716 58.0091C157.821 58.2616 157.646 58.7754 157.42 59.0106C155.696 60.8743 153.466 61.6842 151.002 61.78C144.2 62.0326 139.375 55.7012 141.274 49.161C143.077 42.9516 150.671 39.8164 156.636 44.1795C156.976 44.4234 157.333 44.7282 157.498 45.0852C157.646 45.4162 157.699 46.0867 157.525 46.2174C157.22 46.4264 156.549 46.5309 156.288 46.3306C155.077 45.4075 153.902 44.5366 152.352 44.1882C146.43 42.8384 141.335 48.6559 142.929 54.0466C143.913 57.3908 147.309 60.1514 150.636 59.925" fill="#B6333F"/>
<path id="Vector_9" d="M107.981 52.0349C107.981 49.2568 107.981 46.47 107.981 43.6919C107.981 42.5336 108.321 42.1766 109.488 42.1766C112.379 42.1679 115.262 42.1679 118.145 42.1766C118.423 42.1766 118.772 42.1243 118.972 42.2637C119.251 42.464 119.582 42.821 119.582 43.1171C119.582 43.3784 119.198 43.8138 118.92 43.8661C118.31 43.9967 117.666 43.9532 117.03 43.9532C115.062 43.9532 113.085 43.9706 111.117 43.9445C110.141 43.9271 109.706 44.2928 109.741 45.3204C109.802 46.8706 109.81 48.4208 109.749 49.9622C109.723 50.8244 110.115 51.0857 110.881 51.0857C112.536 51.077 114.191 51.077 115.845 51.077C116.089 51.077 116.394 50.9899 116.577 51.0944C116.995 51.3382 117.352 51.6779 117.735 51.9827C117.361 52.2701 116.995 52.7665 116.603 52.7926C115.062 52.8884 113.512 52.8361 111.961 52.8448C111.535 52.8448 111.117 52.8274 110.699 52.8448C110.019 52.8884 109.723 53.2367 109.732 53.9509C109.775 56.0932 109.784 58.2443 109.802 60.3867C109.802 61.0224 109.706 61.7104 108.939 61.7017C108.19 61.7017 107.947 61.1443 107.955 60.3779C107.999 57.5998 107.973 54.813 107.973 52.0349" fill="#B6333F"/>
<path id="Vector_10" d="M136.224 51.939C136.224 49.1261 136.241 46.3132 136.215 43.5002C136.215 42.7339 136.485 42.2026 137.243 42.2026C137.983 42.2026 138.052 42.821 138.052 43.4306C138.052 48.9519 138.052 54.4733 138.061 59.9947C138.061 60.2734 138.166 60.6304 138.035 60.822C137.782 61.1791 137.399 61.4403 137.068 61.7364C136.79 61.3968 136.276 61.0571 136.267 60.7001C136.189 58.8364 136.241 56.9727 136.241 55.1091C136.241 54.0553 136.241 53.0015 136.241 51.939H136.215" fill="#B6333F"/>
</g>
</svg>
