<svg width="244" height="93" viewBox="0 0 244 93" fill="none" xmlns="http://www.w3.org/2000/svg">
<g id="Layer_1">
<path id="Vector" d="M119.075 27.4698H122.315L123.885 31.7898H125.565L121.115 19.5698H120.255L115.805 31.7898H117.495L119.065 27.4698H119.075ZM120.695 23.0198L121.745 25.8898H119.655L120.695 23.0198Z" fill="#5B5154"/>
<path id="Vector_2" d="M127.784 27.9199C127.814 27.0099 128.144 26.2399 128.804 25.5899C129.264 25.1299 129.714 24.8799 130.154 24.8599V24.1099C129.514 24.1399 128.894 24.4599 128.294 25.0599C128.104 25.2499 127.944 25.4499 127.794 25.6499V24.2799H127.104V31.7799H127.794V27.9099L127.784 27.9199Z" fill="#5B5154"/>
<path id="Vector_3" d="M135.364 31.9999C136.524 31.9999 137.514 31.5899 138.334 30.7699C138.504 30.5999 138.654 30.4299 138.784 30.2399L138.054 29.9799C137.974 30.0699 137.894 30.1599 137.814 30.2499C137.134 30.9299 136.324 31.2699 135.364 31.2699C134.404 31.2699 133.594 30.9299 132.914 30.2499C132.234 29.5699 131.894 28.7499 131.894 27.7999C131.894 26.8499 132.234 26.0299 132.914 25.3499C133.594 24.6799 134.404 24.3399 135.364 24.3399C136.324 24.3399 137.134 24.6799 137.814 25.3499C137.904 25.4399 137.984 25.5299 138.054 25.6299L138.784 25.3599C138.654 25.1799 138.504 25.0099 138.334 24.8399C137.514 24.0199 136.524 23.6099 135.364 23.6099C134.204 23.6099 133.224 24.0199 132.404 24.8399C131.584 25.6599 131.174 26.6499 131.174 27.7999C131.174 28.9499 131.584 29.9499 132.404 30.7699C133.224 31.5899 134.214 31.9999 135.364 31.9999Z" fill="#5B5154"/>
<path id="Vector_4" d="M141.305 25.8196C141.405 25.5996 141.565 25.3896 141.765 25.1896C142.225 24.7496 142.765 24.5296 143.405 24.5296C144.045 24.5296 144.585 24.7496 145.045 25.2096C145.505 25.6696 145.735 26.1996 145.735 26.8396V31.7996H146.425V26.7796C146.415 25.9296 146.125 25.2296 145.575 24.6796C145.015 24.1296 144.295 23.8496 143.415 23.8496C142.595 23.8496 141.905 24.1296 141.325 24.6896V19.5796H140.635V31.7996H141.325V25.8296L141.305 25.8196Z" fill="#5B5154"/>
<path id="Vector_5" d="M149.555 24.29H148.865V31.79H149.555V24.29Z" fill="#5B5154"/>
<path id="Vector_6" d="M149.203 22.9999C149.393 22.9999 149.553 22.9299 149.683 22.7999C149.823 22.6699 149.883 22.5099 149.883 22.3099C149.883 22.1099 149.813 21.9599 149.683 21.8299C149.553 21.6999 149.383 21.6299 149.203 21.6299C149.023 21.6299 148.853 21.6999 148.723 21.8299C148.583 21.9599 148.523 22.1199 148.523 22.3099C148.523 22.4999 148.593 22.6699 148.723 22.7999C148.853 22.9299 149.023 22.9999 149.203 22.9999Z" fill="#5B5154"/>
<path id="Vector_7" d="M153.065 31.7898H153.755V24.9698H155.275V24.2898H153.755V21.0898H153.065V24.2898H151.535V24.9698H153.065V31.7898Z" fill="#5B5154"/>
<path id="Vector_8" d="M163.304 30.2496C162.624 30.9296 161.814 31.2696 160.854 31.2696C159.964 31.2696 159.194 30.9696 158.544 30.3796L163.434 25.4896L163.954 24.9696C163.954 24.9696 163.874 24.8796 163.824 24.8296C163.704 24.7096 163.574 24.5896 163.454 24.4896C162.714 23.8896 161.844 23.5996 160.844 23.5996C159.684 23.5996 158.704 24.0096 157.884 24.8296C157.064 25.6496 156.654 26.6396 156.654 27.7896C156.654 28.9396 157.064 29.9396 157.884 30.7596C158.704 31.5796 159.694 31.9896 160.844 31.9896C161.994 31.9896 162.994 31.5796 163.814 30.7596C163.984 30.5896 164.134 30.4196 164.264 30.2296L163.534 29.9696C163.454 30.0596 163.374 30.1496 163.294 30.2396M157.384 27.7996C157.384 26.8396 157.724 26.0296 158.404 25.3496C159.084 24.6796 159.894 24.3396 160.854 24.3396C161.644 24.3396 162.334 24.5696 162.934 25.0296L158.084 29.8796C157.624 29.2796 157.394 28.5896 157.394 27.7996" fill="#5B5154"/>
<path id="Vector_9" d="M169.844 31.9999C171.004 31.9999 171.994 31.5899 172.814 30.7699C172.984 30.5999 173.134 30.4299 173.264 30.2399L172.534 29.9799C172.454 30.0699 172.374 30.1599 172.294 30.2499C171.614 30.9299 170.804 31.2699 169.844 31.2699C168.884 31.2699 168.074 30.9299 167.394 30.2499C166.714 29.5699 166.374 28.7499 166.374 27.7999C166.374 26.8499 166.714 26.0299 167.394 25.3499C168.074 24.6799 168.884 24.3399 169.844 24.3399C170.804 24.3399 171.614 24.6799 172.294 25.3499C172.384 25.4399 172.464 25.5299 172.534 25.6299L173.264 25.3599C173.134 25.1799 172.984 25.0099 172.814 24.8399C171.994 24.0199 171.004 23.6099 169.844 23.6099C168.684 23.6099 167.704 24.0199 166.884 24.8399C166.064 25.6599 165.654 26.6499 165.654 27.7999C165.654 28.9499 166.064 29.9499 166.884 30.7699C167.704 31.5899 168.694 31.9999 169.844 31.9999Z" fill="#5B5154"/>
<path id="Vector_10" d="M176.165 31.7898H176.855V24.9698H178.385V24.2898H176.855V21.0898H176.165V24.2898H174.635V24.9698H176.165V31.7898Z" fill="#5B5154"/>
<path id="Vector_11" d="M183.315 31.8998C184.195 31.8998 184.915 31.6198 185.465 31.0698C186.025 30.5098 186.305 29.8098 186.325 28.9698V24.2998H185.635V28.9098C185.635 29.5498 185.405 30.0898 184.945 30.5398C184.485 30.9898 183.935 31.2198 183.305 31.2198C182.625 31.2198 182.065 30.9898 181.605 30.5398C181.145 30.0898 180.905 29.5498 180.905 28.9098V24.2998H180.215V28.9698C180.225 29.8198 180.515 30.5198 181.075 31.0698C181.625 31.6298 182.375 31.8998 183.315 31.8998Z" fill="#5B5154"/>
<path id="Vector_12" d="M189.305 27.9199C189.335 27.0099 189.665 26.2399 190.325 25.5899C190.785 25.1299 191.235 24.8799 191.675 24.8599V24.1099C191.035 24.1399 190.415 24.4599 189.815 25.0599C189.625 25.2499 189.465 25.4499 189.315 25.6499V24.2799H188.625V31.7799H189.315V27.9099L189.305 27.9199Z" fill="#5B5154"/>
<path id="Vector_13" d="M199.865 30.7696C200.035 30.5996 200.185 30.4296 200.315 30.2396L199.585 29.9796C199.505 30.0696 199.425 30.1596 199.345 30.2496C198.665 30.9296 197.855 31.2696 196.895 31.2696C196.005 31.2696 195.235 30.9696 194.585 30.3796L199.475 25.4896L199.995 24.9696C199.995 24.9696 199.915 24.8796 199.865 24.8296C199.745 24.7096 199.615 24.5896 199.495 24.4896C198.755 23.8896 197.885 23.5996 196.885 23.5996C195.725 23.5996 194.745 24.0096 193.925 24.8296C193.105 25.6496 192.695 26.6396 192.695 27.7896C192.695 28.9396 193.105 29.9396 193.925 30.7596C194.745 31.5796 195.735 31.9896 196.885 31.9896C198.035 31.9896 199.035 31.5796 199.855 30.7596M193.435 27.7996C193.435 26.8396 193.775 26.0296 194.455 25.3496C195.135 24.6796 195.945 24.3396 196.905 24.3396C197.695 24.3396 198.385 24.5696 198.985 25.0296L194.135 29.8796C193.675 29.2796 193.445 28.5896 193.445 27.7996" fill="#5B5154"/>
<path id="Vector_14" d="M211.294 31.9996C212.454 31.9996 213.444 31.5896 214.264 30.7696C214.434 30.5996 214.584 30.4296 214.714 30.2396L213.984 29.9796C213.904 30.0696 213.824 30.1596 213.744 30.2496C213.064 30.9296 212.254 31.2696 211.294 31.2696C210.404 31.2696 209.634 30.9796 208.984 30.3796L213.874 25.4896L214.394 24.9696C214.394 24.9696 214.314 24.8796 214.264 24.8296C214.144 24.7096 214.024 24.5996 213.894 24.4896C213.154 23.8896 212.284 23.5996 211.294 23.5996C210.134 23.5996 209.144 24.0096 208.334 24.8296C207.514 25.6496 207.104 26.6396 207.104 27.7996C207.104 28.9596 207.514 29.9496 208.334 30.7696C209.154 31.5896 210.144 31.9996 211.294 31.9996ZM208.854 25.3496C209.534 24.6696 210.344 24.3396 211.304 24.3396C212.094 24.3396 212.784 24.5696 213.384 25.0296L208.534 29.8796C208.074 29.2796 207.844 28.5896 207.844 27.7996C207.844 26.8396 208.184 26.0296 208.864 25.3496" fill="#5B5154"/>
<path id="Vector_15" d="M218.304 21.0898H217.624V24.2898H216.094V24.9698H217.624V31.7898H218.304V24.9698H219.834V24.2898H218.304V21.0898Z" fill="#5B5154"/>
<path id="Vector_16" d="M123.174 39.9198V38.3398H116.584V50.5698H123.174V48.9798H118.174V45.2398H123.174V43.6598H118.174V39.9198H123.174Z" fill="#5B5154"/>
<path id="Vector_17" d="M126.344 50.5696H127.034V43.7496H128.564V43.0596H127.034V39.8696H126.344V43.0596H124.814V43.7496H126.344V50.5696Z" fill="#5B5154"/>
<path id="Vector_18" d="M136.495 47.7401V43.0601H135.805V47.6701C135.805 48.3101 135.575 48.8501 135.115 49.3001C134.655 49.7501 134.105 49.9801 133.475 49.9801C132.795 49.9801 132.235 49.7501 131.775 49.3001C131.315 48.8501 131.085 48.3101 131.085 47.6701V43.0601H130.395V47.7401C130.415 48.5901 130.695 49.2901 131.255 49.8401C131.805 50.4001 132.555 50.6701 133.495 50.6701C134.375 50.6701 135.095 50.3901 135.645 49.8401C136.205 49.2901 136.485 48.5801 136.505 47.7401" fill="#5B5154"/>
<path id="Vector_19" d="M146.204 49.0396V50.5696H146.894V38.3496H146.204V44.1296C146.074 43.9496 145.924 43.7796 145.764 43.6196C144.944 42.7996 143.954 42.3896 142.794 42.3896C141.634 42.3896 140.654 42.7996 139.834 43.6196C139.014 44.4396 138.604 45.4296 138.604 46.5896C138.604 47.7496 139.014 48.7396 139.834 49.5496C140.654 50.3696 141.644 50.7796 142.794 50.7796C143.944 50.7796 144.944 50.3696 145.764 49.5496C145.924 49.3896 146.064 49.2196 146.204 49.0396ZM142.794 50.0496C141.834 50.0496 141.024 49.7096 140.344 49.0396C139.664 48.3596 139.324 47.5496 139.324 46.5896C139.324 45.6296 139.664 44.8196 140.344 44.1396C141.024 43.4596 141.834 43.1196 142.794 43.1196C143.754 43.1196 144.564 43.4596 145.244 44.1396C145.754 44.6496 146.074 45.2396 146.204 45.9096V47.2696C146.074 47.9396 145.754 48.5296 145.244 49.0296C144.564 49.7096 143.754 50.0496 142.794 50.0496Z" fill="#5B5154"/>
<path id="Vector_20" d="M149.955 49.5499C150.775 50.3699 151.765 50.7799 152.915 50.7799C154.065 50.7799 155.065 50.3699 155.885 49.5499C156.055 49.3799 156.205 49.2099 156.335 49.0199L155.605 48.7599C155.525 48.8499 155.445 48.9399 155.365 49.0299C154.685 49.7099 153.875 50.0499 152.915 50.0499C152.025 50.0499 151.255 49.7599 150.605 49.1599L155.495 44.2699L156.015 43.7499C156.015 43.7499 155.935 43.6599 155.885 43.6099C155.765 43.4899 155.645 43.3799 155.515 43.2699C154.775 42.6699 153.905 42.3799 152.915 42.3799C151.755 42.3799 150.765 42.7899 149.955 43.6099C149.135 44.4299 148.725 45.4199 148.725 46.5799C148.725 47.7399 149.135 48.7299 149.955 49.5499ZM150.475 44.1299C151.155 43.4499 151.965 43.1199 152.925 43.1199C153.715 43.1199 154.405 43.3499 155.005 43.8099L150.155 48.6599C149.695 48.0599 149.465 47.3699 149.465 46.5799C149.465 45.6199 149.805 44.8099 150.485 44.1299" fill="#5B5154"/>
<path id="Vector_21" d="M160.134 50.0598C159.714 50.0598 159.344 49.9098 159.044 49.6098C158.744 49.3098 158.594 48.9298 158.594 48.4898L157.914 48.6698C157.914 49.1898 158.134 49.6698 158.564 50.0998C158.994 50.5398 159.524 50.7498 160.134 50.7498C160.744 50.7498 161.274 50.5298 161.704 50.0998C162.134 49.6698 162.354 49.1398 162.354 48.5198C162.354 47.8998 162.134 47.3898 161.704 46.9498C161.434 46.6698 160.964 46.3598 160.314 45.9998C159.904 45.7398 159.634 45.5498 159.504 45.4198C159.284 45.1998 159.174 44.9398 159.174 44.6298C159.174 44.3198 159.284 44.0598 159.504 43.8398C159.724 43.6198 159.984 43.5198 160.294 43.5198C160.604 43.5198 160.854 43.6198 161.044 43.8098C161.234 43.9998 161.354 44.2898 161.404 44.6798L162.004 44.4398V44.3998C162.004 43.9898 161.844 43.6298 161.534 43.3098C161.204 42.9798 160.794 42.8198 160.294 42.8198C159.794 42.8198 159.374 42.9998 159.024 43.3498C158.674 43.6998 158.494 44.1298 158.494 44.6298C158.494 45.1298 158.674 45.5498 159.024 45.8998C159.244 46.1198 159.654 46.3898 160.234 46.7098C160.724 47.0298 161.054 47.2698 161.224 47.4298C161.524 47.7298 161.674 48.0898 161.674 48.5198C161.674 48.9498 161.524 49.3198 161.224 49.6198C160.924 49.9198 160.554 50.0698 160.134 50.0698" fill="#5B5154"/>
<path id="Vector_22" d="M177.123 49.0396V50.5696H177.813V38.3496H177.123V44.1296C176.993 43.9496 176.843 43.7796 176.683 43.6196C175.863 42.7996 174.873 42.3896 173.713 42.3896C172.553 42.3896 171.573 42.7996 170.753 43.6196C169.933 44.4396 169.523 45.4296 169.523 46.5896C169.523 47.7496 169.933 48.7396 170.753 49.5496C171.573 50.3696 172.563 50.7796 173.713 50.7796C174.863 50.7796 175.863 50.3696 176.683 49.5496C176.843 49.3896 176.983 49.2196 177.123 49.0396ZM173.713 50.0496C172.753 50.0496 171.943 49.7096 171.263 49.0396C170.583 48.3596 170.243 47.5496 170.243 46.5896C170.243 45.6296 170.583 44.8196 171.263 44.1396C171.943 43.4596 172.753 43.1196 173.713 43.1196C174.673 43.1196 175.483 43.4596 176.163 44.1396C176.673 44.6496 176.993 45.2396 177.123 45.9096V47.2696C176.993 47.9396 176.673 48.5296 176.163 49.0296C175.483 49.7096 174.673 50.0496 173.713 50.0496Z" fill="#5B5154"/>
<path id="Vector_23" d="M187.265 49.0199L186.535 48.7599C186.455 48.8499 186.375 48.9399 186.295 49.0299C185.615 49.7099 184.805 50.0499 183.845 50.0499C182.955 50.0499 182.185 49.7499 181.535 49.1599L186.425 44.2699L186.945 43.7499C186.945 43.7499 186.865 43.6599 186.815 43.6099C186.695 43.4899 186.565 43.3699 186.445 43.2699C185.705 42.6699 184.835 42.3799 183.835 42.3799C182.675 42.3799 181.695 42.7899 180.875 43.6099C180.055 44.4299 179.645 45.4199 179.645 46.5699C179.645 47.7199 180.055 48.7199 180.875 49.5399C181.695 50.3599 182.685 50.7699 183.835 50.7699C184.985 50.7699 185.985 50.3599 186.805 49.5399C186.975 49.3699 187.125 49.1999 187.255 49.0099M180.375 46.5799C180.375 45.6199 180.715 44.8099 181.395 44.1299C182.075 43.4599 182.885 43.1199 183.845 43.1199C184.635 43.1199 185.325 43.3499 185.925 43.8099L181.075 48.6599C180.615 48.0599 180.385 47.3699 180.385 46.5799" fill="#5B5154"/>
<path id="Vector_24" d="M117.754 57.1196H116.594V69.3396H117.754C119.744 69.3396 121.284 68.7696 122.404 67.6496C123.624 66.4296 124.234 64.9496 124.234 63.2296C124.234 61.5096 123.624 60.0296 122.404 58.8096C121.294 57.6996 119.744 57.1296 117.754 57.1196ZM121.264 66.5196C120.464 67.3296 119.424 67.7296 118.174 67.7296V58.7196C119.434 58.7196 120.464 59.1196 121.264 59.9296C122.174 60.8396 122.624 61.9396 122.624 63.2196C122.624 64.4996 122.174 65.6096 121.264 66.5096" fill="#5B5154"/>
<path id="Vector_25" d="M128.654 60.17H129.294L131.164 58.75H129.894L128.654 60.17Z" fill="#5B5154"/>
<path id="Vector_26" d="M132.324 67.8097C131.644 68.4897 130.834 68.8297 129.874 68.8297C128.984 68.8297 128.214 68.5297 127.564 67.9397L132.454 63.0497L132.974 62.5297C132.974 62.5297 132.894 62.4397 132.844 62.3897C132.724 62.2697 132.594 62.1597 132.474 62.0497C131.734 61.4497 130.864 61.1597 129.864 61.1597C128.704 61.1597 127.724 61.5697 126.904 62.3897C126.084 63.2097 125.674 64.1997 125.674 65.3497C125.674 66.4997 126.084 67.4997 126.904 68.3197C127.724 69.1397 128.714 69.5497 129.864 69.5497C131.014 69.5497 132.014 69.1397 132.834 68.3197C133.004 68.1497 133.154 67.9797 133.284 67.7897L132.554 67.5297C132.474 67.6197 132.394 67.7097 132.314 67.7997M126.414 65.3497C126.414 64.3897 126.754 63.5797 127.434 62.8997C128.114 62.2297 128.924 61.8897 129.884 61.8897C130.674 61.8897 131.364 62.1197 131.964 62.5797L127.114 67.4297C126.654 66.8297 126.424 66.1397 126.424 65.3497" fill="#5B5154"/>
<path id="Vector_27" d="M138.055 68.0898L135.165 61.8398H134.365L138.055 69.5498L141.735 61.8398H140.935L138.055 68.0898Z" fill="#5B5154"/>
<path id="Vector_28" d="M149.445 67.8097C148.765 68.4897 147.955 68.8297 146.995 68.8297C146.105 68.8297 145.335 68.5297 144.685 67.9397L149.575 63.0497L150.095 62.5297C150.095 62.5297 150.015 62.4397 149.965 62.3897C149.845 62.2697 149.715 62.1597 149.595 62.0497C148.855 61.4497 147.985 61.1597 146.985 61.1597C145.825 61.1597 144.845 61.5697 144.025 62.3897C143.205 63.2097 142.795 64.1997 142.795 65.3497C142.795 66.4997 143.205 67.4997 144.025 68.3197C144.845 69.1397 145.835 69.5497 146.985 69.5497C148.135 69.5497 149.135 69.1397 149.955 68.3197C150.125 68.1497 150.275 67.9797 150.405 67.7897L149.675 67.5297C149.595 67.6197 149.515 67.7097 149.435 67.7997M143.535 65.3497C143.535 64.3897 143.875 63.5797 144.555 62.8997C145.235 62.2297 146.045 61.8897 147.005 61.8897C147.795 61.8897 148.485 62.1197 149.085 62.5797L144.235 67.4297C143.775 66.8297 143.545 66.1397 143.545 65.3497" fill="#5B5154"/>
<path id="Vector_29" d="M146.413 60.17L148.283 58.75H147.013L145.773 60.17H146.413Z" fill="#5B5154"/>
<path id="Vector_30" d="M152.944 57.1196H152.254V69.3396H152.944V57.1196Z" fill="#5B5154"/>
<path id="Vector_31" d="M158.963 61.1597C157.803 61.1597 156.813 61.5697 156.003 62.3897C155.183 63.2097 154.773 64.1997 154.773 65.3597C154.773 66.5197 155.183 67.5097 156.003 68.3297C156.823 69.1497 157.813 69.5597 158.963 69.5597C160.113 69.5597 161.113 69.1497 161.933 68.3297C162.753 67.5097 163.163 66.5197 163.163 65.3597C163.163 64.1997 162.753 63.2097 161.933 62.3897C161.113 61.5697 160.123 61.1597 158.963 61.1597ZM161.423 67.8097C160.743 68.4897 159.933 68.8197 158.973 68.8197C158.013 68.8197 157.203 68.4797 156.523 67.8097C155.843 67.1297 155.503 66.3197 155.503 65.3597C155.503 64.3997 155.843 63.5897 156.523 62.9097C157.203 62.2297 158.013 61.8897 158.973 61.8897C159.933 61.8897 160.743 62.2297 161.423 62.9097C162.103 63.5897 162.443 64.3997 162.443 65.3597C162.443 66.3197 162.103 67.1297 161.423 67.8097Z" fill="#5B5154"/>
<path id="Vector_32" d="M169.084 61.1699C167.924 61.1699 166.934 61.5799 166.124 62.3899C165.964 62.5499 165.814 62.7199 165.694 62.8999V61.8499H165.004V72.2199H165.694V67.8299C165.824 67.9999 165.964 68.1699 166.124 68.3299C166.944 69.1499 167.934 69.5599 169.084 69.5599C170.234 69.5599 171.234 69.1499 172.054 68.3299C172.874 67.5099 173.284 66.5199 173.284 65.3699C173.284 64.2199 172.874 63.2199 172.054 62.3999C171.234 61.5799 170.244 61.1699 169.084 61.1699ZM171.534 67.8099C170.854 68.4899 170.044 68.8299 169.084 68.8299C168.124 68.8299 167.314 68.4899 166.634 67.8099C166.134 67.3099 165.814 66.7299 165.684 66.0799V64.6399C165.814 63.9799 166.134 63.3999 166.634 62.9099C167.314 62.2299 168.124 61.8899 169.084 61.8899C170.044 61.8899 170.854 62.2299 171.534 62.9099C172.214 63.5899 172.554 64.3999 172.554 65.3599C172.554 66.3199 172.214 67.1299 171.534 67.8099Z" fill="#5B5154"/>
<path id="Vector_33" d="M179.275 61.1699C178.115 61.1699 177.135 61.5799 176.315 62.3899C176.155 62.5499 176.005 62.7199 175.885 62.8999V61.8499H175.195V72.2199H175.885V67.8299C176.015 67.9999 176.155 68.1699 176.315 68.3299C177.135 69.1499 178.125 69.5599 179.275 69.5599C180.425 69.5599 181.425 69.1499 182.245 68.3299C183.065 67.5099 183.475 66.5199 183.475 65.3699C183.475 64.2199 183.065 63.2199 182.245 62.3999C181.425 61.5799 180.435 61.1699 179.275 61.1699ZM181.725 67.8099C181.045 68.4899 180.235 68.8299 179.275 68.8299C178.315 68.8299 177.505 68.4899 176.825 67.8099C176.325 67.3099 176.005 66.7299 175.875 66.0799V64.6399C176.005 63.9799 176.325 63.3999 176.825 62.9099C177.505 62.2299 178.315 61.8899 179.275 61.8899C180.235 61.8899 181.045 62.2299 181.725 62.9099C182.405 63.5899 182.745 64.3999 182.745 65.3599C182.745 66.3199 182.405 67.1299 181.725 67.8099Z" fill="#5B5154"/>
<path id="Vector_34" d="M191.564 67.8097C190.884 68.4897 190.074 68.8297 189.114 68.8297C188.224 68.8297 187.454 68.5297 186.804 67.9397L191.694 63.0497L192.214 62.5297C192.214 62.5297 192.134 62.4397 192.084 62.3897C191.964 62.2697 191.834 62.1597 191.714 62.0497C190.974 61.4497 190.104 61.1597 189.104 61.1597C187.944 61.1597 186.964 61.5697 186.144 62.3897C185.324 63.2097 184.914 64.1997 184.914 65.3497C184.914 66.4997 185.324 67.4997 186.144 68.3197C186.964 69.1397 187.954 69.5497 189.104 69.5497C190.254 69.5497 191.254 69.1397 192.074 68.3197C192.244 68.1497 192.394 67.9797 192.524 67.7897L191.794 67.5297C191.714 67.6197 191.634 67.7097 191.554 67.7997M185.654 65.3497C185.654 64.3897 185.994 63.5797 186.674 62.8997C187.354 62.2297 188.164 61.8897 189.124 61.8897C189.914 61.8897 190.604 62.1197 191.204 62.5797L186.354 67.4297C185.894 66.8297 185.664 66.1397 185.664 65.3497" fill="#5B5154"/>
<path id="Vector_35" d="M200.365 61.3999C199.745 61.3999 199.225 61.6199 198.795 62.0499C198.675 62.1699 198.565 62.2999 198.485 62.4299C198.395 62.2899 198.295 62.1699 198.175 62.0499C197.745 61.6199 197.215 61.3999 196.605 61.3999C195.995 61.3999 195.495 61.6099 195.065 62.0199V61.8399H194.375V69.3399H195.065V63.4899C195.105 63.1099 195.255 62.7899 195.515 62.5299C195.815 62.2299 196.175 62.0799 196.595 62.0799C197.015 62.0799 197.385 62.2299 197.685 62.5299C197.965 62.8099 198.115 63.1499 198.135 63.5499V69.3399H198.825V63.6599C198.825 63.2099 198.975 62.8399 199.275 62.5399C199.575 62.2399 199.945 62.0899 200.365 62.0899C200.785 62.0899 201.155 62.2399 201.455 62.5399C201.735 62.8199 201.885 63.1599 201.905 63.5599V69.3499H202.595V63.5599C202.575 62.9699 202.355 62.4699 201.945 62.0499C201.515 61.6199 200.985 61.3999 200.375 61.3999" fill="#5B5154"/>
<path id="Vector_36" d="M211.064 67.8097C210.384 68.4897 209.574 68.8297 208.614 68.8297C207.724 68.8297 206.954 68.5297 206.304 67.9397L211.194 63.0497L211.714 62.5297C211.714 62.5297 211.634 62.4397 211.584 62.3897C211.464 62.2697 211.334 62.1597 211.214 62.0497C210.474 61.4497 209.604 61.1597 208.604 61.1597C207.444 61.1597 206.464 61.5697 205.644 62.3897C204.824 63.2097 204.414 64.1997 204.414 65.3497C204.414 66.4997 204.824 67.4997 205.644 68.3197C206.464 69.1397 207.454 69.5497 208.604 69.5497C209.754 69.5497 210.754 69.1397 211.574 68.3197C211.744 68.1497 211.894 67.9797 212.024 67.7897L211.294 67.5297C211.214 67.6197 211.134 67.7097 211.054 67.7997M205.154 65.3497C205.154 64.3897 205.494 63.5797 206.174 62.8997C206.854 62.2297 207.664 61.8897 208.624 61.8897C209.414 61.8897 210.104 62.1197 210.704 62.5797L205.854 67.4297C205.394 66.8297 205.164 66.1397 205.164 65.3497" fill="#5B5154"/>
<path id="Vector_37" d="M216.745 61.3896C215.915 61.3896 215.185 61.6996 214.565 62.3196V61.8396H213.875V69.3396H214.565V63.5096C214.685 63.2496 214.865 62.9896 215.115 62.7396C215.575 62.2996 216.115 62.0696 216.755 62.0696C217.395 62.0696 217.935 62.2996 218.395 62.7496C218.855 63.1996 219.085 63.7397 219.085 64.3797V69.3396H219.775V64.3196C219.755 63.4696 219.475 62.7697 218.915 62.2197C218.365 61.6597 217.635 61.3896 216.755 61.3896" fill="#5B5154"/>
<path id="Vector_38" d="M223.814 61.8399V58.6499H223.124V61.8399H221.594V62.5299H223.124V69.3399H223.814V62.5299H225.334V61.8399H223.814Z" fill="#5B5154"/>
<path id="Vector_39" d="M46.9553 21.0698L21.4453 69.3198H21.8653H46.9553V21.3198V21.0698Z" fill="#5B5154"/>
<path id="Vector_40" d="M51.8638 21.0698H51.6738V69.3198H51.8638H78.0038V21.0698H51.8638Z" fill="#5B5154"/>
<path id="Vector_41" d="M82.9336 21.0698V69.3198C96.0336 69.3198 106.644 58.5198 106.644 45.1998C106.644 31.8798 96.0236 21.0798 82.9336 21.0798" fill="#5B5154"/>
</g>
</svg>
