<svg width="385" height="188" viewBox="0 0 385 188" fill="none" xmlns="http://www.w3.org/2000/svg">
<path d="M279.5 87.5L193.5 0L105.5 87.5H279.5Z" fill="url(#paint0_linear_1569_4180)"/>
<g clip-path="url(#clip0_1569_4180)">
<path d="M218.311 94.3658C218.999 94.3658 219.669 94.0869 220.154 93.6021C220.641 93.1177 220.918 92.445 220.918 91.7597C220.918 91.0741 220.641 90.4017 220.154 89.9167C219.669 89.4319 218.999 89.1533 218.311 89.1533C217.626 89.1533 216.953 89.4319 216.469 89.9167C215.984 90.4014 215.705 91.0741 215.705 91.7597C215.705 92.445 215.984 93.1174 216.469 93.6021C216.953 94.0869 217.626 94.3658 218.311 94.3658Z" fill="white"/>
<path d="M192.509 89.1533C191.823 89.1533 191.151 89.4319 190.666 89.9167C190.181 90.4014 189.902 91.0741 189.902 91.7597C189.902 92.445 190.181 93.1174 190.666 93.6021C191.151 94.0869 191.823 94.3658 192.509 94.3658C193.194 94.3658 193.866 94.0869 194.351 93.6021C194.836 93.1177 195.115 92.445 195.115 91.7597C195.115 91.0741 194.836 90.4017 194.351 89.9167C193.866 89.4319 193.194 89.1533 192.509 89.1533Z" fill="white"/>
<path d="M166.706 89.1533C166.02 89.1533 165.348 89.4319 164.863 89.9167C164.378 90.4014 164.1 91.0741 164.1 91.7597C164.1 92.445 164.378 93.1174 164.863 93.6021C165.348 94.0869 166.02 94.3658 166.706 94.3658C167.391 94.3658 168.064 94.0869 168.548 93.6021C169.036 93.1177 169.312 92.445 169.312 91.7597C169.312 91.0741 169.036 90.4017 168.548 89.9167C168.064 89.4319 167.391 89.1533 166.706 89.1533Z" fill="white"/>
<path d="M229.518 57.3571C229.518 55.9178 228.351 54.751 226.912 54.751C225.473 54.751 224.306 55.9178 224.306 57.3571V64.8783L209.711 79.4736L195.115 64.8783V57.3571C195.115 55.9178 193.948 54.751 192.509 54.751C191.07 54.751 189.903 55.9178 189.903 57.3571V64.8783L175.307 79.4736L160.712 64.878V57.3571C160.712 55.9178 159.546 54.751 158.106 54.751C156.667 54.751 155.5 55.9176 155.5 57.3571V104.661C155.5 106.1 156.667 107.267 158.106 107.267H226.912C228.351 107.267 229.518 106.1 229.518 104.661V57.3571ZM224.306 102.055H160.712V72.25L173.465 85.002C174.483 86.0196 176.133 86.0196 177.151 85.002L192.509 69.6436L207.868 85.002C208.886 86.0196 210.535 86.0196 211.554 85.002L224.306 72.25V102.055Z" fill="white"/>
</g>
<path d="M124.604 182V164.504H136.868V166.76H127.22V172.016H135.692V174.128H127.22V179.72H136.892V182H124.604ZM142.355 182L137.795 169.304H140.459L143.003 177.128L143.819 179.864H143.915L144.683 177.128L147.227 169.304H149.891L145.379 182H142.355ZM156.354 182.216C152.61 182.216 150.45 179.648 150.45 175.712C150.45 171.68 152.634 169.112 156.282 169.112C160.29 169.112 162.21 172.016 161.898 176.144H152.874C152.898 178.928 154.266 180.32 156.354 180.32C158.034 180.32 159.186 179.432 159.474 178.112H161.826C161.49 180.68 159.258 182.216 156.354 182.216ZM156.282 171.008C154.338 171.008 153.09 172.208 152.898 174.464H159.474C159.402 172.064 158.106 171.008 156.282 171.008ZM164.486 182V169.304H166.838L166.934 171.824H167.078C167.822 170.024 169.502 169.112 171.374 169.112C173.966 169.112 175.91 170.576 175.91 174.464V182H173.438V174.968C173.438 172.376 172.502 171.152 170.486 171.152C168.302 171.152 166.934 172.88 166.934 175.064V182H164.486ZM184.291 182.216C180.547 182.216 178.387 179.648 178.387 175.712C178.387 171.68 180.571 169.112 184.219 169.112C188.227 169.112 190.147 172.016 189.835 176.144H180.811C180.835 178.928 182.203 180.32 184.291 180.32C185.971 180.32 187.123 179.432 187.411 178.112H189.763C189.427 180.68 187.195 182.216 184.291 182.216ZM184.219 171.008C182.275 171.008 181.027 172.208 180.835 174.464H187.411C187.339 172.064 186.043 171.008 184.219 171.008ZM192.423 182V169.304H194.775L194.871 171.824H195.015C195.735 170.024 197.367 169.112 199.215 169.112C201.087 169.112 202.671 169.928 203.319 172.088H203.511C204.207 170.12 205.935 169.112 207.975 169.112C210.495 169.112 212.367 170.576 212.367 174.464V182H209.919V174.968C209.919 172.376 209.031 171.152 207.039 171.152C204.951 171.152 203.631 172.88 203.631 175.064V182H201.159V174.968C201.159 172.376 200.271 171.152 198.303 171.152C196.191 171.152 194.871 172.88 194.871 175.064V182H192.423ZM220.737 182.216C216.993 182.216 214.833 179.648 214.833 175.712C214.833 171.68 217.017 169.112 220.665 169.112C224.673 169.112 226.593 172.016 226.281 176.144H217.257C217.281 178.928 218.649 180.32 220.737 180.32C222.417 180.32 223.569 179.432 223.857 178.112H226.209C225.873 180.68 223.641 182.216 220.737 182.216ZM220.665 171.008C218.721 171.008 217.473 172.208 217.281 174.464H223.857C223.785 172.064 222.489 171.008 220.665 171.008ZM228.869 182V169.304H231.221L231.317 171.824H231.461C232.205 170.024 233.885 169.112 235.757 169.112C238.349 169.112 240.293 170.576 240.293 174.464V182H237.821V174.968C237.821 172.376 236.885 171.152 234.869 171.152C232.685 171.152 231.317 172.88 231.317 175.064V182H228.869ZM246.954 182C244.866 182 244.218 181.064 244.218 179.36V171.32H241.818V169.304H244.218V165.632L246.69 165.344V169.304H249.498V171.32H246.69V178.904C246.69 179.744 246.978 179.96 247.77 179.96H249.498V182H246.954ZM256.395 182.24C253.059 182.24 251.067 180.536 251.067 178.016H253.515C253.515 179.672 254.715 180.44 256.443 180.44C258.195 180.44 259.131 179.744 259.131 178.568C259.131 177.248 258.291 176.888 256.179 176.576C252.987 176.12 251.403 175.28 251.403 172.904C251.403 170.6 253.419 169.064 256.419 169.064C259.467 169.064 261.339 170.624 261.387 173.048H258.963C258.939 171.512 257.931 170.888 256.371 170.888C254.811 170.888 253.875 171.584 253.875 172.664C253.875 173.912 254.835 174.296 257.067 174.608C260.019 175.016 261.627 175.856 261.627 178.352C261.627 180.848 259.539 182.24 256.395 182.24Z" fill="white"/>
<defs>
<linearGradient id="paint0_linear_1569_4180" x1="317.5" y1="-124.5" x2="318.217" y2="86.4675" gradientUnits="userSpaceOnUse">
<stop stop-color="white"/>
<stop offset="1" stop-color="#7D7D7D" stop-opacity="0"/>
</linearGradient>
<clipPath id="clip0_1569_4180">
<rect width="74.0183" height="74.0183" fill="white" transform="translate(155.5 44)"/>
</clipPath>
</defs>
</svg>
