<svg width="280" height="188" viewBox="0 0 280 188" fill="none" xmlns="http://www.w3.org/2000/svg">
<path d="M227 87.5L141 0L53 87.5H227Z" fill="url(#paint0_linear_2157_8755)"/>
<g clip-path="url(#clip0_2157_8755)">
<path d="M165.811 94.3662C166.499 94.3662 167.169 94.0874 167.654 93.6026C168.141 93.1181 168.418 92.4455 168.418 91.7602C168.418 91.0745 168.141 90.4022 167.654 89.9172C167.169 89.4324 166.499 89.1538 165.811 89.1538C165.126 89.1538 164.453 89.4324 163.969 89.9172C163.484 90.4019 163.205 91.0745 163.205 91.7602C163.205 92.4455 163.484 93.1179 163.969 93.6026C164.453 94.0874 165.126 94.3662 165.811 94.3662Z" fill="#F3742D"/>
<path d="M140.009 89.1538C139.323 89.1538 138.651 89.4324 138.166 89.9172C137.681 90.4019 137.402 91.0745 137.402 91.7602C137.402 92.4455 137.681 93.1179 138.166 93.6026C138.651 94.0874 139.323 94.3662 140.009 94.3662C140.694 94.3662 141.366 94.0874 141.851 93.6026C142.336 93.1181 142.615 92.4455 142.615 91.7602C142.615 91.0745 142.336 90.4022 141.851 89.9172C141.366 89.4324 140.694 89.1538 140.009 89.1538Z" fill="#F3742D"/>
<path d="M114.206 89.1538C113.52 89.1538 112.848 89.4324 112.363 89.9172C111.878 90.4019 111.6 91.0745 111.6 91.7602C111.6 92.4455 111.878 93.1179 112.363 93.6026C112.848 94.0874 113.52 94.3662 114.206 94.3662C114.891 94.3662 115.564 94.0874 116.048 93.6026C116.536 93.1181 116.812 92.4455 116.812 91.7602C116.812 91.0745 116.536 90.4022 116.048 89.9172C115.564 89.4324 114.891 89.1538 114.206 89.1538Z" fill="#F3742D"/>
<path d="M177.018 57.3571C177.018 55.9178 175.851 54.751 174.412 54.751C172.973 54.751 171.806 55.9178 171.806 57.3571V64.8783L157.211 79.4736L142.615 64.8783V57.3571C142.615 55.9178 141.448 54.751 140.009 54.751C138.57 54.751 137.403 55.9178 137.403 57.3571V64.8783L122.807 79.4736L108.212 64.878V57.3571C108.212 55.9178 107.046 54.751 105.606 54.751C104.167 54.751 103 55.9176 103 57.3571V104.661C103 106.1 104.167 107.267 105.606 107.267H174.412C175.851 107.267 177.018 106.1 177.018 104.661V57.3571ZM171.806 102.055H108.212V72.25L120.965 85.002C121.983 86.0196 123.633 86.0196 124.651 85.002L140.009 69.6436L155.368 85.002C156.386 86.0196 158.035 86.0196 159.054 85.002L171.806 72.25V102.055Z" fill="#F3742D"/>
</g>
<path d="M86.3822 177.784L84.2942 180.064L74.9342 170.896L84.1982 161.896L86.2382 164.2L80.1662 169.504H85.6142V172.216H80.1422L86.3822 177.784ZM99.2055 162.832L93.0615 179.68H92.2935L86.6295 162.808L89.7495 162.04L92.7735 172.504L96.1095 162.016L99.2055 162.832ZM111.015 177.784L108.927 180.064L99.567 170.896L108.831 161.896L110.871 164.2L104.799 169.504H110.247V172.216H104.775L111.015 177.784ZM123.794 179.728H122.93L116.09 170.032V179.512H113.186V162.304H114.05L120.89 171.76V162.52H123.794V179.728ZM137.031 177.784L134.943 180.064L125.583 170.896L134.847 161.896L136.887 164.2L130.815 169.504H136.263V172.216H130.791L137.031 177.784ZM155.162 179.32L152.09 179.944L149.978 170.44L147.146 179.728H146.234L143.474 170.44L141.314 179.944L138.242 179.32L142.706 162.328H143.594L146.714 172.12L149.81 162.328H150.698L155.162 179.32ZM167.453 177.784L165.365 180.064L156.005 170.896L165.269 161.896L167.309 164.2L161.237 169.504H166.685V172.216H161.213L167.453 177.784ZM180.232 179.728H179.368L172.528 170.032V179.512H169.624V162.304H170.488L177.328 171.76V162.52H180.232V179.728ZM192.844 165.304H188.884V179.512H185.956V165.304H182.02V162.52H192.844V165.304ZM205.071 174.352L197.055 180.04L195.303 177.688L200.607 174.088L193.695 167.536L201.543 161.992L203.319 164.32L198.159 167.824L205.071 174.352Z" fill="#F3742D"/>
<defs>
<linearGradient id="paint0_linear_2157_8755" x1="265" y1="-124.5" x2="265.717" y2="86.4675" gradientUnits="userSpaceOnUse">
<stop stop-color="white"/>
<stop offset="1" stop-color="white" stop-opacity="0"/>
</linearGradient>
<clipPath id="clip0_2157_8755">
<rect width="74.0183" height="74.0183" fill="white" transform="translate(103 44)"/>
</clipPath>
</defs>
</svg>
