<svg width="384" height="188" viewBox="0 0 384 188" fill="none" xmlns="http://www.w3.org/2000/svg">
<path d="M279 87.5L193 0L105 87.5H279Z" fill="url(#paint0_linear_1569_4186)"/>
<path d="M223.764 68.4373H161.281V63.2346H223.764V53.0201C223.764 52.2758 223.468 51.5621 222.942 51.0358C222.416 50.5096 221.702 50.2139 220.958 50.2139H164.087C163.343 50.2139 162.629 50.5096 162.103 51.0358C161.577 51.5621 161.281 52.2758 161.281 53.0201L161.208 109.885C161.207 110.254 161.278 110.619 161.419 110.96C161.559 111.301 161.766 111.611 162.027 111.872C162.288 112.133 162.598 112.34 162.939 112.48C163.28 112.621 163.646 112.692 164.014 112.691H215.721C216.063 112.691 216.402 112.758 216.718 112.889C217.034 113.02 217.321 113.212 217.563 113.453C217.805 113.695 217.997 113.982 218.128 114.298C218.259 114.614 218.326 114.953 218.326 115.295C218.326 115.637 218.259 115.976 218.128 116.292C217.997 116.608 217.805 116.895 217.563 117.137C217.321 117.378 217.034 117.57 216.718 117.701C216.402 117.832 216.063 117.899 215.721 117.899H161.618H161.607C160.119 117.898 158.693 117.306 157.642 116.253C156.591 115.201 156 113.774 156 112.287L156.073 50.6124C156.073 49.1239 156.664 47.6964 157.717 46.6438C158.769 45.5913 160.197 45 161.685 45H223.354C224.843 45 226.27 45.5913 227.323 46.6438C228.375 47.6964 228.967 49.1239 228.967 50.6124V104.575C228.935 105.244 228.648 105.876 228.163 106.338C227.679 106.801 227.035 107.059 226.365 107.059C225.695 107.059 225.051 106.801 224.567 106.338C224.083 105.876 223.795 105.244 223.764 104.575V68.4373ZM169.094 60.0243C168.742 60.0407 168.39 59.9855 168.061 59.8622C167.731 59.7388 167.429 59.5498 167.175 59.3067C166.92 59.0635 166.717 58.7712 166.579 58.4474C166.44 58.1237 166.369 57.7752 166.369 57.423C166.369 57.0708 166.44 56.7223 166.579 56.3986C166.717 56.0748 166.92 55.7825 167.175 55.5393C167.429 55.2962 167.731 55.1072 168.061 54.9839C168.39 54.8605 168.742 54.8053 169.094 54.8217C169.763 54.8527 170.394 55.1404 170.856 55.6248C171.319 56.1093 171.577 56.7533 171.577 57.423C171.577 58.0927 171.319 58.7367 170.856 59.2212C170.394 59.7056 169.763 59.9933 169.094 60.0243ZM184.713 60.0243C184.361 60.0407 184.01 59.9855 183.68 59.8622C183.35 59.7388 183.049 59.5498 182.794 59.3067C182.539 59.0635 182.336 58.7712 182.198 58.4474C182.059 58.1237 181.988 57.7752 181.988 57.423C181.988 57.0708 182.059 56.7223 182.198 56.3986C182.336 56.0748 182.539 55.7825 182.794 55.5393C183.049 55.2962 183.35 55.1072 183.68 54.9839C184.01 54.8605 184.361 54.8053 184.713 54.8217C185.382 54.8527 186.013 55.1404 186.476 55.6248C186.938 56.1093 187.196 56.7533 187.196 57.423C187.196 58.0927 186.938 58.7367 186.476 59.2212C186.013 59.7056 185.382 59.9933 184.713 60.0243ZM176.9 60.0243C176.549 60.0407 176.197 59.9855 175.867 59.8622C175.538 59.7388 175.236 59.5498 174.981 59.3067C174.727 59.0635 174.524 58.7712 174.385 58.4474C174.247 58.1237 174.175 57.7752 174.175 57.423C174.175 57.0708 174.247 56.7223 174.385 56.3986C174.524 56.0748 174.727 55.7825 174.981 55.5393C175.236 55.2962 175.538 55.1072 175.867 54.9839C176.197 54.8605 176.549 54.8053 176.9 54.8217C177.57 54.8527 178.201 55.1404 178.663 55.6248C179.126 56.1093 179.384 56.7533 179.384 57.423C179.384 58.0927 179.126 58.7367 178.663 59.2212C178.201 59.7056 177.57 59.9933 176.9 60.0243ZM179.578 79.2187C180.128 78.6743 181.581 78.6743 182.131 79.2187C182.681 79.7631 182.681 81.4805 182.131 82.0698L173.64 90.3256L181.918 98.1661C182.468 98.7105 182.541 100.265 181.918 100.877C181.166 101.623 179.628 101.505 179.112 101L169.442 91.347C169.179 91.0821 169.031 90.724 169.031 90.3508C169.031 89.9776 169.179 89.6196 169.442 89.3546L179.578 79.2187ZM205.933 79.2187L216.069 89.3546C216.334 89.6198 216.482 89.9791 216.482 90.3536C216.482 90.7282 216.334 91.0875 216.069 91.3526L206.394 101C205.883 101.505 204.429 101.825 203.587 101C202.796 100.215 203.043 98.5982 203.587 98.0538L211.905 90.3256L203.318 81.9856C202.768 81.3963 202.588 79.9427 203.318 79.2187C204.031 78.5171 205.383 78.6743 205.933 79.2187ZM195.522 77.1982C195.803 76.4686 197.167 76.0084 198.037 76.3339C198.867 76.6426 199.356 77.7931 199.126 78.5227L189.932 103.84C189.652 104.57 188.344 104.856 187.609 104.587C186.829 104.312 185.981 103.24 186.262 102.51L195.522 77.1982Z" fill="white"/>
<path d="M124.676 182L118.292 164.504H121.22L125.444 176.672L126.356 179.528H126.524L127.46 176.696L131.708 164.504H134.588L128.228 182H124.676ZM140.081 182.216C136.337 182.216 134.177 179.648 134.177 175.712C134.177 171.68 136.361 169.112 140.009 169.112C144.017 169.112 145.937 172.016 145.625 176.144H136.601C136.625 178.928 137.993 180.32 140.081 180.32C141.761 180.32 142.913 179.432 143.201 178.112H145.553C145.217 180.68 142.985 182.216 140.081 182.216ZM140.009 171.008C138.065 171.008 136.817 172.208 136.625 174.464H143.201C143.129 172.064 141.833 171.008 140.009 171.008ZM148.212 167.36V164.504H150.684V167.36H148.212ZM148.212 182V169.304H150.684V182H148.212ZM154.119 182V164.504H156.591V182H154.119ZM160.025 182V164.504H162.497V182H160.025ZM170.971 182.216C167.227 182.216 165.067 179.648 165.067 175.712C165.067 171.68 167.251 169.112 170.899 169.112C174.907 169.112 176.827 172.016 176.515 176.144H167.491C167.515 178.928 168.883 180.32 170.971 180.32C172.651 180.32 173.803 179.432 174.091 178.112H176.443C176.107 180.68 173.875 182.216 170.971 182.216ZM170.899 171.008C168.955 171.008 167.707 172.208 167.515 174.464H174.091C174.019 172.064 172.723 171.008 170.899 171.008ZM189.51 182.216C185.766 182.216 183.606 179.648 183.606 175.712C183.606 171.68 185.79 169.112 189.438 169.112C193.446 169.112 195.366 172.016 195.054 176.144H186.03C186.054 178.928 187.422 180.32 189.51 180.32C191.19 180.32 192.342 179.432 192.63 178.112H194.982C194.646 180.68 192.414 182.216 189.51 182.216ZM189.438 171.008C187.494 171.008 186.246 172.208 186.054 174.464H192.63C192.558 172.064 191.262 171.008 189.438 171.008ZM201.266 182C199.178 182 198.53 181.064 198.53 179.36V171.32H196.13V169.304H198.53V165.632L201.002 165.344V169.304H203.81V171.32H201.002V178.904C201.002 179.744 201.29 179.96 202.082 179.96H203.81V182H201.266ZM212.018 182V164.504H219.098C224.138 164.504 227.018 168.008 227.018 173.264C227.018 178.52 224.138 182 219.098 182H212.018ZM214.634 179.744H218.714C222.098 179.744 224.33 177.656 224.33 173.216C224.33 168.776 222.074 166.76 218.714 166.76H214.634V179.744ZM234.165 182.216C231.069 182.216 228.981 179.888 228.981 175.64C228.981 171.392 231.069 169.088 234.165 169.088C236.301 169.088 237.885 170.168 238.485 171.8H238.629L238.725 169.304H241.101V182H238.629V179.48H238.485C237.885 181.112 236.301 182.216 234.165 182.216ZM235.029 180.176C237.381 180.176 238.605 178.328 238.605 176.36V174.92C238.605 172.976 237.381 171.104 235.029 171.104C232.917 171.104 231.525 172.64 231.525 175.64C231.525 178.616 232.917 180.176 235.029 180.176ZM248.188 182C246.1 182 245.452 181.064 245.452 179.36V171.32H243.052V169.304H245.452V165.632L247.924 165.344V169.304H250.732V171.32H247.924V178.904C247.924 179.744 248.212 179.96 249.004 179.96H250.732V182H248.188ZM257.157 182.216C254.061 182.216 251.973 179.888 251.973 175.64C251.973 171.392 254.061 169.088 257.157 169.088C259.293 169.088 260.877 170.168 261.477 171.8H261.621L261.717 169.304H264.093V182H261.621V179.48H261.477C260.877 181.112 259.293 182.216 257.157 182.216ZM258.021 180.176C260.373 180.176 261.597 178.328 261.597 176.36V174.92C261.597 172.976 260.373 171.104 258.021 171.104C255.909 171.104 254.517 172.64 254.517 175.64C254.517 178.616 255.909 180.176 258.021 180.176Z" fill="white"/>
<defs>
<linearGradient id="paint0_linear_1569_4186" x1="317" y1="-124.5" x2="317.717" y2="86.4675" gradientUnits="userSpaceOnUse">
<stop stop-color="white"/>
<stop offset="1" stop-color="#7D7D7D" stop-opacity="0"/>
</linearGradient>
</defs>
</svg>
