<svg width="280" height="188" viewBox="0 0 280 188" fill="none" xmlns="http://www.w3.org/2000/svg">
<path d="M227 87.5L141 0L53 87.5H227Z" fill="url(#paint0_linear_2157_8946)"/>
<path d="M171.764 68.4373H109.281V63.2346H171.764V53.0201C171.764 52.2758 171.468 51.5621 170.942 51.0358C170.416 50.5096 169.702 50.2139 168.958 50.2139H112.087C111.343 50.2139 110.629 50.5096 110.103 51.0358C109.577 51.5621 109.281 52.2758 109.281 53.0201L109.208 109.885C109.207 110.254 109.278 110.619 109.419 110.96C109.559 111.301 109.766 111.611 110.027 111.872C110.288 112.133 110.598 112.34 110.939 112.48C111.28 112.621 111.646 112.692 112.014 112.691H163.721C164.063 112.691 164.402 112.758 164.718 112.889C165.034 113.02 165.321 113.212 165.563 113.453C165.805 113.695 165.997 113.982 166.128 114.298C166.259 114.614 166.326 114.953 166.326 115.295C166.326 115.637 166.259 115.976 166.128 116.292C165.997 116.608 165.805 116.895 165.563 117.137C165.321 117.378 165.034 117.57 164.718 117.701C164.402 117.832 164.063 117.899 163.721 117.899H109.618H109.607C108.119 117.898 106.693 117.306 105.642 116.253C104.591 115.201 104 113.774 104 112.287L104.073 50.6124C104.073 49.1239 104.664 47.6964 105.717 46.6438C106.769 45.5913 108.197 45 109.685 45H171.354C172.843 45 174.27 45.5913 175.323 46.6438C176.375 47.6964 176.967 49.1239 176.967 50.6124V104.575C176.935 105.244 176.648 105.876 176.163 106.338C175.679 106.801 175.035 107.059 174.365 107.059C173.695 107.059 173.051 106.801 172.567 106.338C172.083 105.876 171.795 105.244 171.764 104.575V68.4373ZM117.094 60.0243C116.742 60.0407 116.39 59.9855 116.061 59.8622C115.731 59.7388 115.429 59.5498 115.175 59.3067C114.92 59.0635 114.717 58.7712 114.579 58.4474C114.44 58.1237 114.369 57.7752 114.369 57.423C114.369 57.0708 114.44 56.7223 114.579 56.3986C114.717 56.0748 114.92 55.7825 115.175 55.5393C115.429 55.2962 115.731 55.1072 116.061 54.9839C116.39 54.8605 116.742 54.8053 117.094 54.8217C117.763 54.8527 118.394 55.1404 118.856 55.6248C119.319 56.1093 119.577 56.7533 119.577 57.423C119.577 58.0927 119.319 58.7367 118.856 59.2212C118.394 59.7056 117.763 59.9933 117.094 60.0243ZM132.713 60.0243C132.361 60.0407 132.01 59.9855 131.68 59.8622C131.35 59.7388 131.049 59.5498 130.794 59.3067C130.539 59.0635 130.336 58.7712 130.198 58.4474C130.059 58.1237 129.988 57.7752 129.988 57.423C129.988 57.0708 130.059 56.7223 130.198 56.3986C130.336 56.0748 130.539 55.7825 130.794 55.5393C131.049 55.2962 131.35 55.1072 131.68 54.9839C132.01 54.8605 132.361 54.8053 132.713 54.8217C133.382 54.8527 134.013 55.1404 134.476 55.6248C134.938 56.1093 135.196 56.7533 135.196 57.423C135.196 58.0927 134.938 58.7367 134.476 59.2212C134.013 59.7056 133.382 59.9933 132.713 60.0243ZM124.9 60.0243C124.549 60.0407 124.197 59.9855 123.867 59.8622C123.538 59.7388 123.236 59.5498 122.981 59.3067C122.727 59.0635 122.524 58.7712 122.385 58.4474C122.247 58.1237 122.175 57.7752 122.175 57.423C122.175 57.0708 122.247 56.7223 122.385 56.3986C122.524 56.0748 122.727 55.7825 122.981 55.5393C123.236 55.2962 123.538 55.1072 123.867 54.9839C124.197 54.8605 124.549 54.8053 124.9 54.8217C125.57 54.8527 126.201 55.1404 126.663 55.6248C127.126 56.1093 127.384 56.7533 127.384 57.423C127.384 58.0927 127.126 58.7367 126.663 59.2212C126.201 59.7056 125.57 59.9933 124.9 60.0243ZM127.578 79.2187C128.128 78.6743 129.581 78.6743 130.131 79.2187C130.681 79.7631 130.681 81.4805 130.131 82.0698L121.64 90.3256L129.918 98.1661C130.468 98.7105 130.541 100.265 129.918 100.877C129.166 101.623 127.628 101.505 127.112 101L117.442 91.347C117.179 91.0821 117.031 90.724 117.031 90.3508C117.031 89.9776 117.179 89.6196 117.442 89.3546L127.578 79.2187ZM153.933 79.2187L164.069 89.3546C164.334 89.6198 164.482 89.9791 164.482 90.3536C164.482 90.7282 164.334 91.0875 164.069 91.3526L154.394 101C153.883 101.505 152.429 101.825 151.587 101C150.796 100.215 151.043 98.5982 151.587 98.0538L159.905 90.3256L151.318 81.9856C150.768 81.3963 150.588 79.9427 151.318 79.2187C152.031 78.5171 153.383 78.6743 153.933 79.2187ZM143.522 77.1982C143.803 76.4686 145.167 76.0084 146.037 76.3339C146.867 76.6426 147.356 77.7931 147.126 78.5227L137.932 103.84C137.652 104.57 136.344 104.856 135.609 104.587C134.829 104.312 133.981 103.24 134.262 102.51L143.522 77.1982Z" fill="#F3742D"/>
<path d="M68.976 161.344L61.8 181.216H60.936L54.312 161.296L57.672 160.456L61.464 173.512L65.616 160.528L68.976 161.344ZM82.3519 162.928L74.6479 169.408H81.5359V172.288H74.6239L82.2799 178.864L80.2399 181.528L68.9839 170.896L79.9999 160.48L82.3519 162.928ZM88.17 181H85.002V161.032H88.17V181ZM102.834 181H91.7698V161.032H94.8898V178.024H102.834V181ZM116.053 181H104.989V161.032H108.109V178.024H116.053V181ZM127.493 162.928L119.789 169.408H126.677V172.288H119.765L127.421 178.864L125.381 181.528L114.125 170.896L125.141 160.48L127.493 162.928ZM149.266 162.928L141.562 169.408H148.45V172.288H141.538L149.194 178.864L147.154 181.528L135.898 170.896L146.914 160.48L149.266 162.928ZM163.052 164.008H158.276V181H155.132V164.008H150.356V161.032H163.052V164.008ZM185.766 170.92L172.998 181.48H172.278V160.552H172.998L185.766 170.92ZM181.182 170.92L175.398 166.216V175.72L181.182 170.92ZM200.592 180.712L197.4 181.528L196.176 177.688H189.816L188.496 181.576L185.304 180.688L192.792 160.816H193.512L200.592 180.712ZM195.24 174.712L193.104 167.92L190.824 174.712H195.24ZM211.849 164.008H207.073V181H203.929V164.008H199.153V161.032H211.849V164.008ZM225.694 180.712L222.502 181.528L221.278 177.688H214.918L213.598 181.576L210.406 180.688L217.894 160.816H218.614L225.694 180.712ZM220.342 174.712L218.206 167.92L215.926 174.712H220.342Z" fill="#F3742D"/>
<defs>
<linearGradient id="paint0_linear_2157_8946" x1="265" y1="-124.5" x2="265.717" y2="86.4675" gradientUnits="userSpaceOnUse">
<stop stop-color="white"/>
<stop offset="1" stop-color="white" stop-opacity="0"/>
</linearGradient>
</defs>
</svg>
