<svg width="280" height="188" viewBox="0 0 280 188" fill="none" xmlns="http://www.w3.org/2000/svg">
<path d="M227 87.5L141 0L53 87.5H227Z" fill="url(#paint0_linear_2157_8876)"/>
<path d="M145.368 69.064L152.292 73.5619C152.346 75.5391 151.274 77.3837 151.274 77.3837H145.377C144.09 87.5292 154.491 93.9329 154.491 93.9329C160.173 98.4644 159.423 106.002 159.423 106.002C159.423 106.002 159.343 107.265 154.358 108.42C154.358 108.42 150.016 109.819 135.498 109.426" stroke="#F3742D" stroke-width="4" stroke-linecap="round" stroke-linejoin="round"/>
<path d="M134.784 69.1431L127.906 73.5623C127.854 75.5395 128.926 77.3842 128.926 77.3842H134.823C136.109 87.5296 125.709 93.9334 125.709 93.9334C120.027 98.4648 120.777 106.002 120.777 106.002C120.777 106.002 120.857 107.265 125.842 108.421C125.842 108.421 130.182 109.82 144.702 109.426" stroke="#F3742D" stroke-width="4" stroke-linecap="round" stroke-linejoin="round"/>
<path d="M134.782 69.1436C133.154 68.0477 131.924 66.4693 131.272 64.6385C130.62 62.8077 130.579 60.8199 131.156 58.9647C131.732 57.1091 132.896 55.4829 134.478 54.3229C136.06 53.1628 137.977 52.5295 139.95 52.5151C141.923 52.5004 143.849 53.1055 145.448 54.2421C147.047 55.3787 148.235 56.9875 148.839 58.8343C149.443 60.6808 149.432 62.6687 148.808 64.5088C148.183 66.3488 146.978 67.9449 145.367 69.0646" stroke="#F3742D" stroke-width="4" stroke-linecap="round" stroke-linejoin="round"/>
<path d="M27.3569 179.032L25.0769 181.528L13.9409 170.896L24.9569 160.528L27.2609 163L18.3329 170.872L27.3569 179.032ZM42.8384 170.968L35.0144 179.896H34.4864L26.7584 170.968L34.4864 162.064H35.0144L42.8384 170.968ZM39.0464 170.968L34.7504 165.904L30.4784 170.968L34.7504 176.056L39.0464 170.968ZM55.2511 179.728H54.3871L47.5471 170.032V179.512H44.6431V162.304H45.5071L52.3471 171.76V162.52H55.2511V179.728ZM68.5357 174.352L60.5197 180.04L58.7677 177.688L64.0717 174.088L57.1597 167.536L65.0077 161.992L66.7837 164.32L61.6237 167.824L68.5357 174.352ZM80.6986 177.784L78.6106 180.064L69.2506 170.896L78.5146 161.896L80.5546 164.2L74.4826 169.504H79.9306V172.216H74.4586L80.6986 177.784ZM86.0377 179.512H83.1097V162.52H86.0377V179.512ZM98.4389 179.512H89.1509V162.52H92.0549V176.728H98.4389V179.512ZM110.653 174.352L102.637 180.04L100.885 177.688L106.189 174.088L99.2769 167.536L107.125 161.992L108.901 164.32L103.741 167.824L110.653 174.352ZM130.011 177.784L127.923 180.064L118.563 170.896L127.827 161.896L129.867 164.2L123.795 169.504H129.243V172.216H123.771L130.011 177.784ZM141.926 165.304H137.966V179.512H135.038V165.304H131.102V162.52H141.926V165.304ZM161.348 174.352L153.332 180.04L151.58 177.688L156.884 174.088L149.972 167.536L157.82 161.992L159.596 164.32L154.436 167.824L161.348 174.352ZM172.887 165.304H168.927V179.512H165.999V165.304H162.063V162.52H172.887V165.304ZM186.218 178.288L184.058 180.16L179.258 174.76L177.602 176.032V179.536H174.698L174.722 162.04H175.466L185.93 169.888L181.586 173.08L186.218 178.288ZM181.274 169.96L177.602 167.104V172.792L181.274 169.96ZM199.914 179.176L196.986 179.992L195.954 176.728H190.986L189.834 180.04L186.93 179.176L193.218 162.352H193.962L199.914 179.176ZM195.09 174.04L193.554 169.024L191.898 174.04H195.09ZM210.153 165.304H206.193V179.512H203.265V165.304H199.329V162.52H210.153V165.304ZM219.102 156.112L214.59 160.36L213.078 158.848L217.59 154.6L219.102 156.112ZM220.902 177.784L218.814 180.064L209.454 170.896L218.718 161.896L220.758 164.2L214.686 169.504H220.134V172.216H214.662L220.902 177.784ZM234.185 179.944H233.609L221.993 170.968L231.641 161.944L233.825 164.032L226.169 170.8L231.281 174.592V169.384H234.185V179.944ZM240.116 179.512H237.188V162.52H240.116V179.512ZM253.597 177.784L251.509 180.064L242.149 170.896L251.413 161.896L253.453 164.2L247.381 169.504H252.829V172.216H247.357L253.597 177.784ZM266.184 174.352L258.168 180.04L256.416 177.688L261.72 174.088L254.808 167.536L262.656 161.992L264.432 164.32L259.272 167.824L266.184 174.352Z" fill="#F3742D"/>
<defs>
<linearGradient id="paint0_linear_2157_8876" x1="265" y1="-124.5" x2="265.717" y2="86.4675" gradientUnits="userSpaceOnUse">
<stop stop-color="white"/>
<stop offset="1" stop-color="white" stop-opacity="0"/>
</linearGradient>
</defs>
</svg>
