<svg width="384" height="188" viewBox="0 0 384 188" fill="none" xmlns="http://www.w3.org/2000/svg">
<path d="M279 87.5L193 0L105 87.5H279Z" fill="url(#paint0_linear_1569_4183)"/>
<path d="M197.368 69.0645L204.292 73.5624C204.346 75.5396 203.274 77.3842 203.274 77.3842H197.377C196.09 87.5297 206.491 93.9334 206.491 93.9334C212.173 98.4649 211.423 106.002 211.423 106.002C211.423 106.002 211.343 107.265 206.358 108.421C206.358 108.421 202.016 109.82 187.498 109.426" stroke="white" stroke-width="4" stroke-linecap="round" stroke-linejoin="round"/>
<path d="M186.784 69.1436L179.906 73.5628C179.854 75.54 180.926 77.3846 180.926 77.3846H186.823C188.109 87.5301 177.709 93.9339 177.709 93.9339C172.027 98.4653 172.777 106.003 172.777 106.003C172.777 106.003 172.857 107.266 177.842 108.421C177.842 108.421 182.182 109.82 196.702 109.427" stroke="white" stroke-width="4" stroke-linecap="round" stroke-linejoin="round"/>
<path d="M186.782 69.1436C185.154 68.0477 183.924 66.4693 183.272 64.6385C182.62 62.8077 182.579 60.8199 183.156 58.9647C183.732 57.1091 184.896 55.4829 186.478 54.3229C188.06 53.1628 189.977 52.5295 191.95 52.5151C193.923 52.5004 195.849 53.1055 197.448 54.2421C199.047 55.3787 200.235 56.9875 200.839 58.8343C201.443 60.6808 201.432 62.6687 200.808 64.5088C200.183 66.3488 198.978 67.9449 197.367 69.0646" stroke="white" stroke-width="4" stroke-linecap="round" stroke-linejoin="round"/>
<path d="M80.6139 182.216C75.4539 182.216 72.0459 178.784 72.0459 173.264C72.0459 167.72 75.4779 164.312 80.6139 164.312C84.9339 164.312 88.0299 166.688 88.5579 170.36H85.9179C85.4379 168.128 83.4699 166.568 80.6139 166.568C76.9899 166.568 74.7339 168.992 74.7339 173.264C74.7339 177.512 76.9899 179.96 80.6139 179.96C83.4459 179.96 85.4859 178.424 85.9179 176.072L88.5579 176.096C88.1019 179.792 84.9339 182.216 80.6139 182.216ZM96.7519 182.216C93.0319 182.216 90.5359 179.672 90.5359 175.688C90.5359 171.776 92.9119 169.112 96.7519 169.112C100.448 169.112 102.944 171.632 102.944 175.664C102.944 179.552 100.568 182.216 96.7519 182.216ZM96.7519 180.152C98.9599 180.152 100.424 178.544 100.424 175.664C100.424 172.808 99.0319 171.152 96.7519 171.152C94.5439 171.152 93.0559 172.76 93.0559 175.688C93.0559 178.52 94.4959 180.152 96.7519 180.152ZM105.533 182V169.304H107.885L107.981 171.824H108.125C108.869 170.024 110.549 169.112 112.421 169.112C115.013 169.112 116.957 170.576 116.957 174.464V182H114.485V174.968C114.485 172.376 113.549 171.152 111.533 171.152C109.349 171.152 107.981 172.88 107.981 175.064V182H105.533ZM124.738 182.24C121.402 182.24 119.41 180.536 119.41 178.016H121.858C121.858 179.672 123.058 180.44 124.786 180.44C126.538 180.44 127.474 179.744 127.474 178.568C127.474 177.248 126.634 176.888 124.522 176.576C121.33 176.12 119.746 175.28 119.746 172.904C119.746 170.6 121.762 169.064 124.762 169.064C127.81 169.064 129.682 170.624 129.73 173.048H127.306C127.282 171.512 126.274 170.888 124.714 170.888C123.154 170.888 122.218 171.584 122.218 172.664C122.218 173.912 123.178 174.296 125.41 174.608C128.362 175.016 129.97 175.856 129.97 178.352C129.97 180.848 127.882 182.24 124.738 182.24ZM137.737 182.216C133.993 182.216 131.833 179.648 131.833 175.712C131.833 171.68 134.017 169.112 137.665 169.112C141.673 169.112 143.593 172.016 143.281 176.144H134.257C134.281 178.928 135.649 180.32 137.737 180.32C139.417 180.32 140.569 179.432 140.857 178.112H143.209C142.873 180.68 140.641 182.216 137.737 182.216ZM137.665 171.008C135.721 171.008 134.473 172.208 134.281 174.464H140.857C140.785 172.064 139.489 171.008 137.665 171.008ZM145.869 167.36V164.504H148.341V167.36H145.869ZM145.869 182V169.304H148.341V182H145.869ZM151.775 182V164.504H154.247V182H151.775ZM162.121 182.24C158.785 182.24 156.793 180.536 156.793 178.016H159.241C159.241 179.672 160.441 180.44 162.169 180.44C163.921 180.44 164.857 179.744 164.857 178.568C164.857 177.248 164.017 176.888 161.905 176.576C158.713 176.12 157.129 175.28 157.129 172.904C157.129 170.6 159.145 169.064 162.145 169.064C165.193 169.064 167.065 170.624 167.113 173.048H164.689C164.665 171.512 163.657 170.888 162.097 170.888C160.537 170.888 159.601 171.584 159.601 172.664C159.601 173.912 160.561 174.296 162.793 174.608C165.745 175.016 167.353 175.856 167.353 178.352C167.353 180.848 165.265 182.24 162.121 182.24ZM180.37 182.216C176.626 182.216 174.466 179.648 174.466 175.712C174.466 171.68 176.65 169.112 180.298 169.112C184.306 169.112 186.226 172.016 185.914 176.144H176.89C176.914 178.928 178.282 180.32 180.37 180.32C182.05 180.32 183.202 179.432 183.49 178.112H185.842C185.506 180.68 183.274 182.216 180.37 182.216ZM180.298 171.008C178.354 171.008 177.106 172.208 176.914 174.464H183.49C183.418 172.064 182.122 171.008 180.298 171.008ZM192.125 182C190.037 182 189.389 181.064 189.389 179.36V171.32H186.989V169.304H189.389V165.632L191.861 165.344V169.304H194.669V171.32H191.861V178.904C191.861 179.744 192.149 179.96 192.941 179.96H194.669V182H192.125ZM206.934 182.24C203.598 182.24 201.606 180.536 201.606 178.016H204.054C204.054 179.672 205.254 180.44 206.982 180.44C208.734 180.44 209.67 179.744 209.67 178.568C209.67 177.248 208.83 176.888 206.718 176.576C203.526 176.12 201.942 175.28 201.942 172.904C201.942 170.6 203.958 169.064 206.958 169.064C210.006 169.064 211.878 170.624 211.926 173.048H209.502C209.478 171.512 208.47 170.888 206.91 170.888C205.35 170.888 204.414 171.584 204.414 172.664C204.414 173.912 205.374 174.296 207.606 174.608C210.558 175.016 212.166 175.856 212.166 178.352C212.166 180.848 210.078 182.24 206.934 182.24ZM218.399 182C216.311 182 215.663 181.064 215.663 179.36V171.32H213.263V169.304H215.663V165.632L218.135 165.344V169.304H220.943V171.32H218.135V178.904C218.135 179.744 218.423 179.96 219.215 179.96H220.943V182H218.399ZM227.368 182.216C224.272 182.216 222.184 179.888 222.184 175.64C222.184 171.392 224.272 169.088 227.368 169.088C229.504 169.088 231.088 170.168 231.688 171.8H231.832L231.928 169.304H234.304V182H231.832V179.48H231.688C231.088 181.112 229.504 182.216 227.368 182.216ZM228.232 180.176C230.584 180.176 231.808 178.328 231.808 176.36V174.92C231.808 172.976 230.584 171.104 228.232 171.104C226.12 171.104 224.728 172.64 224.728 175.64C224.728 178.616 226.12 180.176 228.232 180.176ZM241.391 182C239.303 182 238.655 181.064 238.655 179.36V171.32H236.255V169.304H238.655V165.632L241.127 165.344V169.304H243.935V171.32H241.127V178.904C241.127 179.744 241.415 179.96 242.207 179.96H243.935V182H241.391ZM246.392 182V169.304H248.6L248.72 171.56H248.84C249.392 169.928 250.832 169.136 252.512 169.136C252.8 169.136 253.04 169.16 253.256 169.184V171.512C253.064 171.488 252.776 171.488 252.488 171.488C250.232 171.488 248.96 172.664 248.84 174.752V182H246.392ZM259.169 167.72L260.609 164.312H263.129L261.041 167.72H259.169ZM260.081 182.216C256.337 182.216 254.177 179.648 254.177 175.712C254.177 171.68 256.361 169.112 260.009 169.112C264.017 169.112 265.937 172.016 265.625 176.144H256.601C256.625 178.928 257.993 180.32 260.081 180.32C261.761 180.32 262.913 179.432 263.201 178.112H265.553C265.217 180.68 262.985 182.216 260.081 182.216ZM260.009 171.008C258.065 171.008 256.817 172.208 256.625 174.464H263.201C263.129 172.064 261.833 171.008 260.009 171.008ZM273.955 186.248C270.907 186.248 268.963 184.856 268.699 182.6H271.099C271.291 183.728 272.395 184.424 274.003 184.424C276.283 184.424 277.507 183.512 277.507 181.16V178.688H277.339C276.763 180.224 275.203 181.256 273.187 181.256C270.091 181.256 268.075 179.048 268.075 175.184C268.075 171.296 270.139 169.088 273.211 169.088C275.227 169.088 276.763 170.12 277.339 171.656H277.507L277.555 169.304H279.955V180.824C279.955 184.808 277.531 186.248 273.955 186.248ZM274.027 179.336C276.235 179.336 277.459 177.608 277.507 175.928L277.483 174.392C277.459 172.736 276.283 171.032 274.051 171.032C271.939 171.032 270.619 172.544 270.619 175.184C270.619 177.872 271.963 179.336 274.027 179.336ZM283.283 167.36V164.504H285.755V167.36H283.283ZM283.283 182V169.304H285.755V182H283.283ZM294.229 182.216C290.485 182.216 288.325 179.648 288.325 175.712C288.325 171.68 290.509 169.112 294.157 169.112C298.165 169.112 300.085 172.016 299.773 176.144H290.749C290.773 178.928 292.141 180.32 294.229 180.32C295.909 180.32 297.061 179.432 297.349 178.112H299.701C299.365 180.68 297.133 182.216 294.229 182.216ZM294.157 171.008C292.213 171.008 290.965 172.208 290.773 174.464H297.349C297.277 172.064 295.981 171.008 294.157 171.008ZM306.801 182.24C303.465 182.24 301.473 180.536 301.473 178.016H303.921C303.921 179.672 305.121 180.44 306.849 180.44C308.601 180.44 309.537 179.744 309.537 178.568C309.537 177.248 308.697 176.888 306.585 176.576C303.393 176.12 301.809 175.28 301.809 172.904C301.809 170.6 303.825 169.064 306.825 169.064C309.873 169.064 311.745 170.624 311.793 173.048H309.369C309.345 171.512 308.337 170.888 306.777 170.888C305.217 170.888 304.281 171.584 304.281 172.664C304.281 173.912 305.241 174.296 307.473 174.608C310.425 175.016 312.033 175.856 312.033 178.352C312.033 180.848 309.945 182.24 306.801 182.24Z" fill="white"/>
<defs>
<linearGradient id="paint0_linear_1569_4183" x1="317" y1="-124.5" x2="317.717" y2="86.4675" gradientUnits="userSpaceOnUse">
<stop stop-color="white"/>
<stop offset="1" stop-color="#7D7D7D" stop-opacity="0"/>
</linearGradient>
</defs>
</svg>
