<svg width="384" height="188" viewBox="0 0 384 188" fill="none" xmlns="http://www.w3.org/2000/svg">
<path d="M279 87.5L193 0L105 87.5H279Z" fill="url(#paint0_linear_1569_4177)"/>
<g clip-path="url(#clip0_1569_4177)">
<path d="M169.569 107.995C167.32 107.993 165.164 107.098 163.574 105.507C161.984 103.917 161.09 101.76 161.088 99.5108V74.838C161.092 72.5902 161.987 70.4356 163.577 68.8464C165.166 67.2573 167.321 66.3631 169.569 66.3598H197.326C199.519 66.3605 201.626 67.2093 203.207 68.7287C204.788 70.2481 205.72 72.3202 205.807 74.5111L213.826 71.2944C214.645 70.9667 215.532 70.8448 216.409 70.9393C217.286 71.0338 218.126 71.3418 218.857 71.8363C219.587 72.3309 220.185 72.9969 220.598 73.7761C221.012 74.5553 221.228 75.424 221.228 76.306V98.0366C221.23 98.9197 221.015 99.7898 220.603 100.571C220.19 101.352 219.592 102.019 218.862 102.515C218.131 103.011 217.29 103.32 216.412 103.415C215.534 103.51 214.646 103.389 213.826 103.061L205.807 99.85C205.719 102.04 204.787 104.111 203.206 105.629C201.625 107.148 199.518 107.995 197.326 107.995H169.569ZM165.714 74.8411V99.5139C165.715 100.536 166.121 101.516 166.844 102.239C167.567 102.962 168.547 103.368 169.569 103.369H197.326C198.349 103.368 199.329 102.961 200.052 102.238C200.775 101.514 201.181 100.533 201.181 99.5108V74.838C201.179 73.8166 200.772 72.8378 200.049 72.1158C199.327 71.3939 198.347 70.9876 197.326 70.986H169.569C168.547 70.9876 167.568 71.3943 166.845 72.1169C166.122 72.8395 165.716 73.8191 165.714 74.8411ZM215.544 75.5967L205.807 79.4919V94.8661L215.544 98.7613C215.635 98.7977 215.732 98.8165 215.831 98.8168C216.035 98.8168 216.231 98.7356 216.376 98.591C216.52 98.4464 216.602 98.2503 216.602 98.0458V76.3122C216.602 76.2138 216.584 76.1163 216.546 76.0254C216.49 75.8814 216.392 75.7577 216.264 75.6708C216.136 75.5838 215.985 75.5375 215.831 75.5381C215.732 75.5396 215.635 75.5595 215.544 75.5967ZM169.569 58.6496C168.956 58.6496 168.367 58.4059 167.934 57.9721C167.5 57.5383 167.256 56.95 167.256 56.3365C167.256 55.723 167.5 55.1347 167.934 54.7009C168.367 54.2671 168.956 54.0234 169.569 54.0234H197.326C197.939 54.0234 198.528 54.2671 198.962 54.7009C199.395 55.1347 199.639 55.723 199.639 56.3365C199.639 56.95 199.395 57.5383 198.962 57.9721C198.528 58.4059 197.939 58.6496 197.326 58.6496H169.569Z" fill="white"/>
</g>
<path d="M28.362 182V164.504H32.442L37.242 177.896H37.338L42.138 164.504H46.194V182H43.65V173.816L43.722 167.264H43.554L38.394 182H36.162L31.05 167.264H30.882L30.93 173.84V182H28.362ZM54.1841 167.72L55.6241 164.312H58.1441L56.0561 167.72H54.1841ZM55.0961 182.216C51.3521 182.216 49.1921 179.648 49.1921 175.712C49.1921 171.68 51.3761 169.112 55.0241 169.112C59.0321 169.112 60.9521 172.016 60.6401 176.144H51.6161C51.6401 178.928 53.0081 180.32 55.0961 180.32C56.7761 180.32 57.9281 179.432 58.2161 178.112H60.5681C60.2321 180.68 58.0001 182.216 55.0961 182.216ZM55.0241 171.008C53.0801 171.008 51.8321 172.208 51.6401 174.464H58.2161C58.1441 172.064 56.8481 171.008 55.0241 171.008ZM68.2746 182.216C65.1786 182.216 63.0906 179.888 63.0906 175.64C63.0906 171.392 65.1786 169.088 68.2746 169.088C70.4106 169.088 71.9946 170.168 72.5946 171.8H72.7386V164.504H75.2106V182H72.8346L72.7386 179.48H72.5946C71.9946 181.112 70.4106 182.216 68.2746 182.216ZM69.1386 180.176C71.4906 180.176 72.7146 178.328 72.7146 176.36V174.92C72.7146 172.976 71.4906 171.104 69.1386 171.104C67.0266 171.104 65.6346 172.64 65.6346 175.64C65.6346 178.616 67.0266 180.176 69.1386 180.176ZM78.6733 167.36V164.504H81.1453V167.36H78.6733ZM78.6733 182V169.304H81.1453V182H78.6733ZM88.8996 182.216C85.8036 182.216 83.7156 179.888 83.7156 175.64C83.7156 171.392 85.8036 169.088 88.8996 169.088C91.0356 169.088 92.6196 170.168 93.2196 171.8H93.3636L93.4596 169.304H95.8356V182H93.3636V179.48H93.2196C92.6196 181.112 91.0356 182.216 88.8996 182.216ZM89.7636 180.176C92.1156 180.176 93.3396 178.328 93.3396 176.36V174.92C93.3396 172.976 92.1156 171.104 89.7636 171.104C87.6516 171.104 86.2596 172.64 86.2596 175.64C86.2596 178.616 87.6516 180.176 89.7636 180.176ZM103.738 182.24C100.402 182.24 98.4103 180.536 98.4103 178.016H100.858C100.858 179.672 102.058 180.44 103.786 180.44C105.538 180.44 106.474 179.744 106.474 178.568C106.474 177.248 105.634 176.888 103.522 176.576C100.33 176.12 98.7463 175.28 98.7463 172.904C98.7463 170.6 100.762 169.064 103.762 169.064C106.81 169.064 108.682 170.624 108.73 173.048H106.306C106.282 171.512 105.274 170.888 103.714 170.888C102.154 170.888 101.218 171.584 101.218 172.664C101.218 173.912 102.178 174.296 104.41 174.608C107.362 175.016 108.97 175.856 108.97 178.352C108.97 180.848 106.882 182.24 103.738 182.24ZM121.987 182.216C118.243 182.216 116.083 179.648 116.083 175.712C116.083 171.68 118.267 169.112 121.915 169.112C125.923 169.112 127.843 172.016 127.531 176.144H118.507C118.531 178.928 119.899 180.32 121.987 180.32C123.667 180.32 124.819 179.432 125.107 178.112H127.459C127.123 180.68 124.891 182.216 121.987 182.216ZM121.915 171.008C119.971 171.008 118.723 172.208 118.531 174.464H125.107C125.035 172.064 123.739 171.008 121.915 171.008ZM133.743 182C131.655 182 131.007 181.064 131.007 179.36V171.32H128.607V169.304H131.007V165.632L133.479 165.344V169.304H136.287V171.32H133.479V178.904C133.479 179.744 133.767 179.96 134.559 179.96H136.287V182H133.743ZM144.111 182V169.304H146.319L146.439 171.56H146.559C147.111 169.928 148.551 169.136 150.231 169.136C150.519 169.136 150.759 169.16 150.975 169.184V171.512C150.783 171.488 150.495 171.488 150.207 171.488C147.951 171.488 146.679 172.664 146.559 174.752V182H144.111ZM157.799 182.216C154.055 182.216 151.895 179.648 151.895 175.712C151.895 171.68 154.079 169.112 157.727 169.112C161.735 169.112 163.655 172.016 163.343 176.144H154.319C154.343 178.928 155.711 180.32 157.799 180.32C159.479 180.32 160.631 179.432 160.919 178.112H163.271C162.935 180.68 160.703 182.216 157.799 182.216ZM157.727 171.008C155.783 171.008 154.535 172.208 154.343 174.464H160.919C160.847 172.064 159.551 171.008 157.727 171.008ZM165.931 182V164.504H168.403V182H165.931ZM176.157 182.216C173.061 182.216 170.973 179.888 170.973 175.64C170.973 171.392 173.061 169.088 176.157 169.088C178.293 169.088 179.877 170.168 180.477 171.8H180.621L180.717 169.304H183.093V182H180.621V179.48H180.477C179.877 181.112 178.293 182.216 176.157 182.216ZM177.021 180.176C179.373 180.176 180.597 178.328 180.597 176.36V174.92C180.597 172.976 179.373 171.104 177.021 171.104C174.909 171.104 173.517 172.64 173.517 175.64C173.517 178.616 174.909 180.176 177.021 180.176ZM190.18 182C188.092 182 187.444 181.064 187.444 179.36V171.32H185.044V169.304H187.444V165.632L189.916 165.344V169.304H192.724V171.32H189.916V178.904C189.916 179.744 190.204 179.96 190.996 179.96H192.724V182H190.18ZM195.181 167.36V164.504H197.653V167.36H195.181ZM195.181 182V169.304H197.653V182H195.181ZM206.439 182.216C202.719 182.216 200.223 179.672 200.223 175.688C200.223 171.776 202.599 169.112 206.439 169.112C210.135 169.112 212.631 171.632 212.631 175.664C212.631 179.552 210.255 182.216 206.439 182.216ZM206.439 180.152C208.647 180.152 210.111 178.544 210.111 175.664C210.111 172.808 208.719 171.152 206.439 171.152C204.231 171.152 202.743 172.76 202.743 175.688C202.743 178.52 204.183 180.152 206.439 180.152ZM215.22 182V169.304H217.572L217.668 171.824H217.812C218.556 170.024 220.236 169.112 222.108 169.112C224.7 169.112 226.644 170.576 226.644 174.464V182H224.172V174.968C224.172 172.376 223.236 171.152 221.22 171.152C219.036 171.152 217.668 172.88 217.668 175.064V182H215.22ZM234.426 182.24C231.09 182.24 229.098 180.536 229.098 178.016H231.546C231.546 179.672 232.746 180.44 234.474 180.44C236.226 180.44 237.162 179.744 237.162 178.568C237.162 177.248 236.322 176.888 234.21 176.576C231.018 176.12 229.434 175.28 229.434 172.904C229.434 170.6 231.45 169.064 234.45 169.064C237.498 169.064 239.37 170.624 239.418 173.048H236.994C236.97 171.512 235.962 170.888 234.402 170.888C232.842 170.888 231.906 171.584 231.906 172.664C231.906 173.912 232.866 174.296 235.098 174.608C238.05 175.016 239.658 175.856 239.658 178.352C239.658 180.848 237.57 182.24 234.426 182.24ZM248.018 182V164.504H255.098C258.818 164.504 261.194 166.52 261.194 170.072C261.194 173.432 258.89 175.664 255.074 175.64H250.634V182H248.018ZM254.69 166.76H250.634V173.552H254.69C256.97 173.576 258.53 172.472 258.53 170.144C258.53 167.816 256.946 166.76 254.69 166.76ZM268.012 182.216C265.132 182.216 263.452 180.488 263.452 177.128V169.304H265.924V176.504C265.924 178.856 266.788 180.152 268.924 180.152C271.012 180.152 272.404 178.496 272.404 176.168V169.304H274.876V182H272.524L272.404 179.432H272.26C271.636 181.184 269.98 182.216 268.012 182.216ZM285.156 182.216C283.02 182.216 281.436 181.136 280.836 179.504H280.692L280.596 182H278.22V164.504H280.692V171.8H280.836C281.436 170.192 283.02 169.088 285.156 169.088C288.252 169.088 290.34 171.416 290.34 175.664C290.34 179.912 288.252 182.216 285.156 182.216ZM284.292 180.176C286.404 180.176 287.796 178.64 287.796 175.664C287.796 172.664 286.404 171.128 284.292 171.128C281.94 171.128 280.716 172.976 280.716 174.944V176.36C280.716 178.328 281.94 180.176 284.292 180.176ZM292.939 182V164.504H295.411V182H292.939ZM298.845 167.36V164.504H301.317V167.36H298.845ZM298.845 182V169.304H301.317V182H298.845ZM313.535 186.008V179.48H313.391C312.791 181.112 311.207 182.216 309.071 182.216C305.975 182.216 303.887 179.888 303.887 175.64C303.887 171.392 305.975 169.088 309.071 169.088C311.207 169.088 312.791 170.168 313.391 171.8H313.535L313.631 169.304H316.007V186.008H313.535ZM309.935 180.176C312.287 180.176 313.511 178.328 313.511 176.36V174.92C313.511 172.976 312.287 171.104 309.935 171.104C307.823 171.104 306.431 172.64 306.431 175.64C306.431 178.616 307.823 180.176 309.935 180.176ZM323.91 182.216C321.03 182.216 319.35 180.488 319.35 177.128V169.304H321.822V176.504C321.822 178.856 322.686 180.152 324.822 180.152C326.91 180.152 328.302 178.496 328.302 176.168V169.304H330.774V182H328.422L328.302 179.432H328.158C327.534 181.184 325.878 182.216 323.91 182.216ZM339.065 182.216C335.321 182.216 333.161 179.648 333.161 175.712C333.161 171.68 335.345 169.112 338.993 169.112C343.001 169.112 344.921 172.016 344.609 176.144H335.585C335.609 178.928 336.977 180.32 339.065 180.32C340.745 180.32 341.897 179.432 342.185 178.112H344.537C344.201 180.68 341.969 182.216 339.065 182.216ZM338.993 171.008C337.049 171.008 335.801 172.208 335.609 174.464H342.185C342.113 172.064 340.817 171.008 338.993 171.008ZM351.637 182.24C348.301 182.24 346.309 180.536 346.309 178.016H348.757C348.757 179.672 349.957 180.44 351.685 180.44C353.437 180.44 354.373 179.744 354.373 178.568C354.373 177.248 353.533 176.888 351.421 176.576C348.229 176.12 346.645 175.28 346.645 172.904C346.645 170.6 348.661 169.064 351.661 169.064C354.709 169.064 356.581 170.624 356.629 173.048H354.205C354.181 171.512 353.173 170.888 351.613 170.888C350.053 170.888 349.117 171.584 349.117 172.664C349.117 173.912 350.077 174.296 352.309 174.608C355.261 175.016 356.869 175.856 356.869 178.352C356.869 180.848 354.781 182.24 351.637 182.24Z" fill="white"/>
<defs>
<linearGradient id="paint0_linear_1569_4177" x1="317" y1="-124.5" x2="317.717" y2="86.4675" gradientUnits="userSpaceOnUse">
<stop stop-color="white"/>
<stop offset="1" stop-color="#7D7D7D" stop-opacity="0"/>
</linearGradient>
<clipPath id="clip0_1569_4177">
<rect width="74.0183" height="74.0183" fill="white" transform="translate(154.148 44)"/>
</clipPath>
</defs>
</svg>
