<svg width="354" height="188" viewBox="0 0 354 188" fill="none" xmlns="http://www.w3.org/2000/svg">
<path d="M264 87.5L178 0L90 87.5H264Z" fill="url(#paint0_linear_2157_8837)"/>
<g clip-path="url(#clip0_2157_8837)">
<path d="M154.569 107.995C152.32 107.993 150.164 107.098 148.574 105.507C146.984 103.917 146.09 101.76 146.088 99.5108V74.838C146.092 72.5902 146.987 70.4356 148.577 68.8464C150.166 67.2573 152.321 66.3631 154.569 66.3598H182.326C184.519 66.3605 186.626 67.2093 188.207 68.7287C189.788 70.2481 190.72 72.3202 190.807 74.5111L198.826 71.2944C199.645 70.9667 200.532 70.8448 201.409 70.9393C202.286 71.0338 203.126 71.3418 203.857 71.8363C204.587 72.3309 205.185 72.9969 205.598 73.7761C206.012 74.5553 206.228 75.424 206.228 76.306V98.0366C206.23 98.9197 206.015 99.7898 205.603 100.571C205.19 101.352 204.592 102.019 203.862 102.515C203.131 103.011 202.29 103.32 201.412 103.415C200.534 103.51 199.646 103.389 198.826 103.061L190.807 99.85C190.719 102.04 189.787 104.111 188.206 105.629C186.625 107.148 184.518 107.995 182.326 107.995H154.569ZM150.714 74.8411V99.5139C150.715 100.536 151.121 101.516 151.844 102.239C152.567 102.962 153.547 103.368 154.569 103.369H182.326C183.349 103.368 184.329 102.961 185.052 102.238C185.775 101.514 186.181 100.533 186.181 99.5108V74.838C186.179 73.8166 185.772 72.8378 185.049 72.1158C184.327 71.3939 183.347 70.9876 182.326 70.986H154.569C153.547 70.9876 152.568 71.3943 151.845 72.1169C151.122 72.8395 150.716 73.8191 150.714 74.8411ZM200.544 75.5967L190.807 79.4919V94.8661L200.544 98.7613C200.635 98.7977 200.732 98.8165 200.831 98.8168C201.035 98.8168 201.231 98.7356 201.376 98.591C201.52 98.4464 201.602 98.2503 201.602 98.0458V76.3122C201.602 76.2138 201.584 76.1163 201.546 76.0254C201.49 75.8814 201.392 75.7577 201.264 75.6708C201.136 75.5838 200.985 75.5375 200.831 75.5381C200.732 75.5396 200.635 75.5595 200.544 75.5967ZM154.569 58.6496C153.956 58.6496 153.367 58.4059 152.934 57.9721C152.5 57.5383 152.256 56.95 152.256 56.3365C152.256 55.723 152.5 55.1347 152.934 54.7009C153.367 54.2671 153.956 54.0234 154.569 54.0234H182.326C182.939 54.0234 183.528 54.2671 183.962 54.7009C184.395 55.1347 184.639 55.723 184.639 56.3365C184.639 56.95 184.395 57.5383 183.962 57.9721C183.528 58.4059 182.939 58.6496 182.326 58.6496H154.569Z" fill="#F3742D"/>
</g>
<path d="M20.4909 180.808L17.2029 181.48L14.6109 170.056L11.0349 181.24H10.1709L6.59494 170.056L3.97894 181.48L0.690938 180.808L5.85094 160.792H6.69094L10.6029 172.696L14.5149 160.792H15.3309L20.4909 180.808ZM30.9846 156.112L26.4726 160.36L24.9606 158.848L29.4726 154.6L30.9846 156.112ZM32.7846 177.784L30.6966 180.064L21.3366 170.896L30.6006 161.896L32.6406 164.2L26.5686 169.504H32.0166V172.216H26.5446L32.7846 177.784ZM48.6836 170.92L35.9156 181.48H35.1956V160.552H35.9156L48.6836 170.92ZM44.0996 170.92L38.3156 166.216V175.72L44.0996 170.92ZM54.1427 181H50.9747V161.032H54.1427V181ZM71.8305 180.712L68.6385 181.528L67.4145 177.688H61.0545L59.7345 181.576L56.5425 180.688L64.0305 160.816H64.7505L71.8305 180.712ZM66.4785 174.712L64.3425 167.92L62.0625 174.712H66.4785ZM85.1901 174.976L75.7821 181.552L73.9341 179.056L80.3661 174.688L72.0141 166.888L81.2781 160.528L83.2221 162.976L76.8381 167.176L85.1901 174.976ZM104.667 177.784L102.579 180.064L93.2194 170.896L102.483 161.896L104.523 164.2L98.4514 169.504H103.899V172.216H98.4274L104.667 177.784ZM116.582 165.304H112.622V179.512H109.694V165.304H105.758V162.52H116.582V165.304ZM137.108 178.288L134.948 180.16L130.148 174.76L128.492 176.032V179.536H125.588L125.612 162.04H126.356L136.82 169.888L132.476 173.08L137.108 178.288ZM132.164 169.96L128.492 167.104V172.792L132.164 169.96ZM149.035 177.784L146.947 180.064L137.587 170.896L146.851 161.896L148.891 164.2L142.819 169.504H148.267V172.216H142.795L149.035 177.784ZM160.494 179.512H151.206V162.52H154.11V176.728H160.494V179.512ZM174.196 179.176L171.268 179.992L170.236 176.728H165.268L164.116 180.04L161.212 179.176L167.5 162.352H168.244L174.196 179.176ZM169.372 174.04L167.836 169.024L166.18 174.04H169.372ZM184.434 165.304H180.474V179.512H177.546V165.304H173.61V162.52H184.434V165.304ZM189.413 179.512H186.485V162.52H189.413V179.512ZM207.526 170.968L199.702 179.896H199.174L191.446 170.968L199.174 162.064H199.702L207.526 170.968ZM203.734 170.968L199.438 165.904L195.166 170.968L199.438 176.056L203.734 170.968ZM219.939 179.728H219.075L212.235 170.032V179.512H209.331V162.304H210.195L217.035 171.76V162.52H219.939V179.728ZM233.223 174.352L225.207 180.04L223.455 177.688L228.759 174.088L221.847 167.536L229.695 161.992L231.471 164.32L226.311 167.824L233.223 174.352ZM253.469 169.768L245.117 175.576V179.488H242.213L242.237 162.064H243.029L253.469 169.768ZM248.765 169.696L245.117 166.912V172.336L248.765 169.696ZM266.092 179.512H255.268V162.52H258.172V176.8H263.188V162.52H266.092V179.512ZM268.979 179.968V162.016H269.819L280.211 167.296L275.243 170.68L280.763 174.88L269.819 179.968H268.979ZM271.883 169.888L275.363 167.8L271.883 166.072V169.888ZM271.883 175.96L275.843 174.208L271.883 171.448V175.96ZM291.861 179.512H282.573V162.52H285.477V176.728H291.861V179.512ZM296.827 179.512H293.899V162.52H296.827V179.512ZM314.964 170.968L311.676 174.808L313.644 177.064L311.94 179.08L309.972 176.824L307.164 179.896H306.636L298.86 170.968L306.636 162.064H307.164L314.964 170.968ZM311.172 170.968L306.9 165.904L302.604 170.968L306.9 176.056L308.076 174.664L305.964 172.168L307.716 170.152L309.804 172.6L311.172 170.968ZM327.592 179.512H316.768V162.52H319.672V176.8H324.688V162.52H327.592V179.512ZM340.847 177.784L338.759 180.064L329.399 170.896L338.663 161.896L340.703 164.2L334.631 169.504H340.079V172.216H334.607L340.847 177.784ZM353.434 174.352L345.418 180.04L343.666 177.688L348.97 174.088L342.058 167.536L349.906 161.992L351.682 164.32L346.522 167.824L353.434 174.352Z" fill="#F3742D"/>
<defs>
<linearGradient id="paint0_linear_2157_8837" x1="302" y1="-124.5" x2="302.717" y2="86.4675" gradientUnits="userSpaceOnUse">
<stop stop-color="white"/>
<stop offset="1" stop-color="white" stop-opacity="0"/>
</linearGradient>
<clipPath id="clip0_2157_8837">
<rect width="74.0183" height="74.0183" fill="white" transform="translate(139.148 44)"/>
</clipPath>
</defs>
</svg>
